<mxfile host="Electron" agent="Mozilla/5.0 (Windows NT 10.0; Win64; x64) AppleWebKit/537.36 (KHTML, like Gecko) draw.io/24.7.8 Chrome/128.0.6613.36 Electron/32.0.1 Safari/537.36" version="24.7.8">
  <diagram id="7Isf6xMYXmhKDAAIETeE" name="ClassDiagram">
    <mxGraphModel dx="3772" dy="2561" grid="1" gridSize="10" guides="1" tooltips="1" connect="1" arrows="1" fold="1" page="1" pageScale="1" pageWidth="1169" pageHeight="827" math="0" shadow="0">
      <root>
        <mxCell id="0" />
        <mxCell id="1" parent="0" />
        <mxCell id="gW4IxIGInDRmWeXZWS_a-80" value="" style="html=1;strokeColor=none;resizeWidth=1;resizeHeight=1;fillColor=none;part=1;connectable=1;allowArrows=0;deletable=1;fontSize=12;movable=1;resizable=1;rotatable=1;editable=1;locked=0;" parent="1" vertex="1">
          <mxGeometry x="110" y="-670" width="10" height="10" as="geometry">
            <mxPoint y="70" as="offset" />
          </mxGeometry>
        </mxCell>
        <mxCell id="1Yj8D8H0FmLidYMPe9CD-1" value="" style="shape=folder;fontStyle=1;spacingTop=10;tabWidth=100;tabHeight=20;tabPosition=left;html=1;fillColor=#ffe6cc;strokeColor=#d79b00;movable=1;resizable=1;rotatable=1;deletable=1;editable=1;locked=0;connectable=1;" parent="1" vertex="1">
          <mxGeometry x="-1800" y="-1169" width="2070" height="1009" as="geometry" />
        </mxCell>
        <mxCell id="TotBtE_DFq-EetUc3UUm-1" value="alerts" style="text;html=1;align=center;verticalAlign=middle;resizable=1;points=[];autosize=1;strokeColor=#d79b00;fillColor=#ffe6cc;gradientColor=none;glass=0;movable=1;rotatable=1;deletable=1;editable=1;locked=0;connectable=1;" parent="1" vertex="1">
          <mxGeometry x="-1799.998352297293" y="-1169" width="40" height="20" as="geometry" />
        </mxCell>
        <mxCell id="pX3zZydq1ZKa4Ty7GVHY-1" value="+ SpringApp" style="swimlane;fontStyle=1;align=center;verticalAlign=top;childLayout=stackLayout;horizontal=1;startSize=26;horizontalStack=0;resizeParent=1;resizeParentMax=0;resizeLast=0;collapsible=1;marginBottom=0;fillColor=#ffe6cc;strokeColor=#d79b00;movable=1;resizable=1;rotatable=1;deletable=1;editable=1;locked=0;connectable=1;" parent="1" vertex="1">
          <mxGeometry x="-1635.13125" y="-1139.9965700483092" width="160.6" height="72.94685990338162" as="geometry" />
        </mxCell>
        <mxCell id="pX3zZydq1ZKa4Ty7GVHY-2" value="- static final logger : Logger" style="text;align=left;verticalAlign=top;spacingLeft=4;spacingRight=4;overflow=hidden;rotatable=1;points=[[0,0.5],[1,0.5]];portConstraint=eastwest;movable=1;resizable=1;deletable=1;editable=1;locked=0;connectable=1;" parent="pX3zZydq1ZKa4Ty7GVHY-1" vertex="1">
          <mxGeometry y="26" width="160.6" height="20.34363929146537" as="geometry" />
        </mxCell>
        <mxCell id="pX3zZydq1ZKa4Ty7GVHY-3" value="" style="line;strokeWidth=1;align=left;verticalAlign=middle;spacingTop=-1;spacingLeft=3;spacingRight=3;rotatable=1;labelPosition=right;points=[];portConstraint=eastwest;movable=1;resizable=1;deletable=1;editable=1;locked=0;connectable=1;" parent="pX3zZydq1ZKa4Ty7GVHY-1" vertex="1">
          <mxGeometry y="46.343639291465365" width="160.6" height="6.2595813204508834" as="geometry" />
        </mxCell>
        <mxCell id="pX3zZydq1ZKa4Ty7GVHY-4" value="+ static main(: []String): void" style="text;align=left;verticalAlign=top;spacingLeft=4;spacingRight=4;overflow=hidden;rotatable=1;points=[[0,0.5],[1,0.5]];portConstraint=eastwest;movable=1;resizable=1;deletable=1;editable=1;locked=0;connectable=1;" parent="pX3zZydq1ZKa4Ty7GVHY-1" vertex="1">
          <mxGeometry y="52.60322061191625" width="160.6" height="20.34363929146537" as="geometry" />
        </mxCell>
        <mxCell id="L_LMBmzwX3eB0V7V_VdJ-1" value="" style="endArrow=none;html=1;rounded=0;align=center;verticalAlign=top;endFill=0;labelBackgroundColor=none;exitX=1;exitY=0.25;exitDx=0;exitDy=0;strokeColor=#FF0000;entryX=0.607;entryY=0.05;entryDx=0;entryDy=0;entryPerimeter=0;movable=1;resizable=1;rotatable=1;deletable=1;editable=1;locked=0;connectable=1;" parent="1" source="pX3zZydq1ZKa4Ty7GVHY-1" target="nXKcTEVYwteALs7NC0Xw-1" edge="1">
          <mxGeometry relative="1" as="geometry">
            <mxPoint x="-638.28125" y="-1067.2215297906603" as="sourcePoint" />
            <mxPoint x="-450.0547999999999" y="-1010.0060289855073" as="targetPoint" />
          </mxGeometry>
        </mxCell>
        <mxCell id="L_LMBmzwX3eB0V7V_VdJ-2" value="0" style="resizable=1;html=1;align=left;verticalAlign=top;labelBackgroundColor=none;glass=0;gradientColor=none;movable=1;rotatable=1;deletable=1;editable=1;locked=0;connectable=1;" parent="L_LMBmzwX3eB0V7V_VdJ-1" connectable="0" vertex="1">
          <mxGeometry x="-1" relative="1" as="geometry">
            <mxPoint y="-23" as="offset" />
          </mxGeometry>
        </mxCell>
        <mxCell id="L_LMBmzwX3eB0V7V_VdJ-3" value="&lt;span style=&quot;text-align: left&quot;&gt;1&lt;/span&gt;" style="resizable=1;html=1;align=right;verticalAlign=bottom;labelBackgroundColor=none;glass=0;gradientColor=none;movable=1;rotatable=1;deletable=1;editable=1;locked=0;connectable=1;" parent="L_LMBmzwX3eB0V7V_VdJ-1" connectable="0" vertex="1">
          <mxGeometry x="1" relative="1" as="geometry">
            <mxPoint x="-11" y="-12" as="offset" />
          </mxGeometry>
        </mxCell>
        <mxCell id="s-YFi4-1TaiG5wxw9o94-1" value="" style="shape=folder;fontStyle=1;spacingTop=10;tabWidth=100;tabHeight=20;tabPosition=left;html=1;fillColor=#d5e8d4;strokeColor=#82b366;movable=1;resizable=1;rotatable=1;deletable=1;editable=1;locked=0;connectable=1;" parent="1" vertex="1">
          <mxGeometry x="-1167.5600000000002" y="-620" width="805.13" height="416" as="geometry" />
        </mxCell>
        <mxCell id="_YQEFRuC_VUM07GQXSP8-16" value="+ Person" style="swimlane;fontStyle=1;align=center;verticalAlign=top;childLayout=stackLayout;horizontal=1;startSize=26;horizontalStack=0;resizeParent=1;resizeParentMax=0;resizeLast=0;collapsible=1;marginBottom=0;fillColor=#d5e8d4;strokeColor=#000000;movable=1;resizable=1;rotatable=1;deletable=1;editable=1;locked=0;connectable=1;" parent="1" vertex="1">
          <mxGeometry x="-1160" y="-584" width="250" height="194.66505636070846" as="geometry" />
        </mxCell>
        <mxCell id="ZxJXqssnahOHYMhJ38kJ-1" value="- id = firstName+&quot; &quot;+lastName: String" style="text;strokeColor=none;fillColor=none;align=left;verticalAlign=top;spacingLeft=4;spacingRight=4;overflow=hidden;rotatable=1;points=[[0,0.5],[1,0.5]];portConstraint=eastwest;movable=1;resizable=1;deletable=1;editable=1;locked=0;connectable=1;" parent="_YQEFRuC_VUM07GQXSP8-16" vertex="1">
          <mxGeometry y="26" width="250" height="20.343639291465372" as="geometry" />
        </mxCell>
        <mxCell id="_YQEFRuC_VUM07GQXSP8-2" value="- firstName: String" style="text;strokeColor=none;fillColor=none;align=left;verticalAlign=top;spacingLeft=4;spacingRight=4;overflow=hidden;rotatable=1;points=[[0,0.5],[1,0.5]];portConstraint=eastwest;movable=1;resizable=1;deletable=1;editable=1;locked=0;connectable=1;" parent="_YQEFRuC_VUM07GQXSP8-16" vertex="1">
          <mxGeometry y="46.34363929146537" width="250" height="20.343639291465372" as="geometry" />
        </mxCell>
        <mxCell id="_YQEFRuC_VUM07GQXSP8-3" value="- lastName: String" style="text;strokeColor=none;fillColor=none;align=left;verticalAlign=top;spacingLeft=4;spacingRight=4;overflow=hidden;rotatable=1;points=[[0,0.5],[1,0.5]];portConstraint=eastwest;movable=1;resizable=1;deletable=1;editable=1;locked=0;connectable=1;" parent="_YQEFRuC_VUM07GQXSP8-16" vertex="1">
          <mxGeometry y="66.68727858293074" width="250" height="20.343639291465372" as="geometry" />
        </mxCell>
        <mxCell id="_YQEFRuC_VUM07GQXSP8-29" value="- phone: String" style="text;strokeColor=none;fillColor=none;align=left;verticalAlign=top;spacingLeft=4;spacingRight=4;overflow=hidden;rotatable=1;points=[[0,0.5],[1,0.5]];portConstraint=eastwest;movable=1;resizable=1;deletable=1;editable=1;locked=0;connectable=1;" parent="_YQEFRuC_VUM07GQXSP8-16" vertex="1">
          <mxGeometry y="87.03091787439612" width="250" height="20.343639291465372" as="geometry" />
        </mxCell>
        <mxCell id="_YQEFRuC_VUM07GQXSP8-30" value="- email: String" style="text;strokeColor=none;fillColor=none;align=left;verticalAlign=top;spacingLeft=4;spacingRight=4;overflow=hidden;rotatable=1;points=[[0,0.5],[1,0.5]];portConstraint=eastwest;movable=1;resizable=1;deletable=1;editable=1;locked=0;connectable=1;" parent="_YQEFRuC_VUM07GQXSP8-16" vertex="1">
          <mxGeometry y="107.37455716586149" width="250" height="20.343639291465372" as="geometry" />
        </mxCell>
        <mxCell id="AdAsgxLj9f2kZuYANCnb-1" value="- age: int" style="text;strokeColor=none;fillColor=none;align=left;verticalAlign=top;spacingLeft=4;spacingRight=4;overflow=hidden;rotatable=1;points=[[0,0.5],[1,0.5]];portConstraint=eastwest;movable=1;resizable=1;deletable=1;editable=1;locked=0;connectable=1;" parent="_YQEFRuC_VUM07GQXSP8-16" vertex="1">
          <mxGeometry y="127.71819645732685" width="250" height="20.343639291465372" as="geometry" />
        </mxCell>
        <mxCell id="_YQEFRuC_VUM07GQXSP8-19" value="" style="line;strokeWidth=1;fillColor=none;align=left;verticalAlign=middle;spacingTop=-1;spacingLeft=3;spacingRight=3;rotatable=1;labelPosition=right;points=[];portConstraint=eastwest;movable=1;resizable=1;deletable=1;editable=1;locked=0;connectable=1;" parent="_YQEFRuC_VUM07GQXSP8-16" vertex="1">
          <mxGeometry y="148.06183574879222" width="250" height="6.2595813204508834" as="geometry" />
        </mxCell>
        <mxCell id="DitG0eytX2IhtNALohOV-15" value="+ setAddress(address:Address): void" style="text;strokeColor=none;fillColor=none;align=left;verticalAlign=top;spacingLeft=4;spacingRight=4;overflow=hidden;rotatable=1;points=[[0,0.5],[1,0.5]];portConstraint=eastwest;movable=1;resizable=1;deletable=1;editable=1;locked=0;connectable=1;" parent="_YQEFRuC_VUM07GQXSP8-16" vertex="1">
          <mxGeometry y="154.3214170692431" width="250" height="20" as="geometry" />
        </mxCell>
        <mxCell id="USRTUU9e9MGLYhp3lKSy-138" value="+ equals(lastName: String):" style="text;strokeColor=none;fillColor=none;align=left;verticalAlign=top;spacingLeft=4;spacingRight=4;overflow=hidden;rotatable=1;points=[[0,0.5],[1,0.5]];portConstraint=eastwest;movable=1;resizable=1;deletable=1;editable=1;locked=0;connectable=1;" parent="_YQEFRuC_VUM07GQXSP8-16" vertex="1">
          <mxGeometry y="174.3214170692431" width="250" height="20.343639291465372" as="geometry" />
        </mxCell>
        <mxCell id="_YQEFRuC_VUM07GQXSP8-57" value="+ Medicalrecord" style="swimlane;fontStyle=1;align=center;verticalAlign=top;childLayout=stackLayout;horizontal=1;startSize=26;horizontalStack=0;resizeParent=1;resizeParentMax=0;resizeLast=0;collapsible=1;marginBottom=0;fillColor=#d5e8d4;strokeColor=#000000;movable=1;resizable=1;rotatable=1;deletable=1;editable=1;locked=0;connectable=1;" parent="1" vertex="1">
          <mxGeometry x="-610" y="-588" width="219.74" height="133.97777777777773" as="geometry" />
        </mxCell>
        <mxCell id="_YQEFRuC_VUM07GQXSP8-59" value="- id: String" style="text;strokeColor=none;fillColor=none;align=left;verticalAlign=top;spacingLeft=4;spacingRight=4;overflow=hidden;rotatable=1;points=[[0,0.5],[1,0.5]];portConstraint=eastwest;movable=1;resizable=1;deletable=1;editable=1;locked=0;connectable=1;" parent="_YQEFRuC_VUM07GQXSP8-57" vertex="1">
          <mxGeometry y="26" width="219.74" height="20.343639291465372" as="geometry" />
        </mxCell>
        <mxCell id="_YQEFRuC_VUM07GQXSP8-58" value="- birthdate: LocalDate" style="text;strokeColor=none;fillColor=none;align=left;verticalAlign=top;spacingLeft=4;spacingRight=4;overflow=hidden;rotatable=1;points=[[0,0.5],[1,0.5]];portConstraint=eastwest;movable=1;resizable=1;deletable=1;editable=1;locked=0;connectable=1;" parent="_YQEFRuC_VUM07GQXSP8-57" vertex="1">
          <mxGeometry y="46.34363929146537" width="219.74" height="20.343639291465372" as="geometry" />
        </mxCell>
        <mxCell id="jNMQZEK8fxUkL67PKVae-6" value="- medications: List&lt;String&gt;" style="text;strokeColor=none;fillColor=none;align=left;verticalAlign=top;spacingLeft=4;spacingRight=4;overflow=hidden;rotatable=1;points=[[0,0.5],[1,0.5]];portConstraint=eastwest;movable=1;resizable=1;deletable=1;editable=1;locked=0;connectable=1;" parent="_YQEFRuC_VUM07GQXSP8-57" vertex="1">
          <mxGeometry y="66.68727858293074" width="219.74" height="20.343639291465372" as="geometry" />
        </mxCell>
        <mxCell id="_YQEFRuC_VUM07GQXSP8-60" value="- allergies: List&lt;String&gt;" style="text;strokeColor=none;fillColor=none;align=left;verticalAlign=top;spacingLeft=4;spacingRight=4;overflow=hidden;rotatable=1;points=[[0,0.5],[1,0.5]];portConstraint=eastwest;movable=1;resizable=1;deletable=1;editable=1;locked=0;connectable=1;" parent="_YQEFRuC_VUM07GQXSP8-57" vertex="1">
          <mxGeometry y="87.03091787439612" width="219.74" height="20.343639291465372" as="geometry" />
        </mxCell>
        <mxCell id="_YQEFRuC_VUM07GQXSP8-63" value="" style="line;strokeWidth=1;fillColor=none;align=left;verticalAlign=middle;spacingTop=-1;spacingLeft=3;spacingRight=3;rotatable=1;labelPosition=right;points=[];portConstraint=eastwest;movable=1;resizable=1;deletable=1;editable=1;locked=0;connectable=1;" parent="_YQEFRuC_VUM07GQXSP8-57" vertex="1">
          <mxGeometry y="107.37455716586149" width="219.74" height="6.2595813204508834" as="geometry" />
        </mxCell>
        <mxCell id="DitG0eytX2IhtNALohOV-16" value="+ Medicalrecord(birthdate: LocalDate)" style="text;strokeColor=none;fillColor=none;align=left;verticalAlign=top;spacingLeft=4;spacingRight=4;overflow=hidden;rotatable=1;points=[[0,0.5],[1,0.5]];portConstraint=eastwest;movable=1;resizable=1;deletable=1;editable=1;locked=0;connectable=1;" parent="_YQEFRuC_VUM07GQXSP8-57" vertex="1">
          <mxGeometry y="113.63413848631237" width="219.74" height="20.343639291465372" as="geometry" />
        </mxCell>
        <mxCell id="_YQEFRuC_VUM07GQXSP8-90" value="" style="endArrow=none;html=1;rounded=0;align=center;verticalAlign=top;endFill=0;labelBackgroundColor=none;strokeColor=#FF0000;entryX=1.004;entryY=0.022;entryDx=0;entryDy=0;entryPerimeter=0;exitX=-0.005;exitY=0.053;exitDx=0;exitDy=0;exitPerimeter=0;movable=1;resizable=1;rotatable=1;deletable=1;editable=1;locked=0;connectable=1;" parent="1" source="_YQEFRuC_VUM07GQXSP8-57" target="_YQEFRuC_VUM07GQXSP8-16" edge="1">
          <mxGeometry relative="1" as="geometry">
            <mxPoint x="-1340" y="-618" as="sourcePoint" />
            <mxPoint x="-1370" y="-488" as="targetPoint" />
          </mxGeometry>
        </mxCell>
        <mxCell id="_YQEFRuC_VUM07GQXSP8-91" value="1" style="resizable=1;html=1;align=left;verticalAlign=top;labelBackgroundColor=none;glass=0;gradientColor=none;movable=1;rotatable=1;deletable=1;editable=1;locked=0;connectable=1;" parent="_YQEFRuC_VUM07GQXSP8-90" connectable="0" vertex="1">
          <mxGeometry x="-1" relative="1" as="geometry">
            <mxPoint x="-9" y="-31" as="offset" />
          </mxGeometry>
        </mxCell>
        <mxCell id="_YQEFRuC_VUM07GQXSP8-98" value="+ Firestation" style="swimlane;fontStyle=1;align=center;verticalAlign=top;childLayout=stackLayout;horizontal=1;startSize=26;horizontalStack=0;resizeParent=1;resizeParentMax=0;resizeLast=0;collapsible=1;marginBottom=0;fillColor=#d5e8d4;strokeColor=#000000;movable=1;resizable=1;rotatable=1;deletable=1;editable=1;locked=0;connectable=1;" parent="1" vertex="1">
          <mxGeometry x="-650" y="-430" width="279.74" height="113.63413848631237" as="geometry" />
        </mxCell>
        <mxCell id="_YQEFRuC_VUM07GQXSP8-99" value="- stationNumber: int" style="text;strokeColor=none;fillColor=none;align=left;verticalAlign=top;spacingLeft=4;spacingRight=4;overflow=hidden;rotatable=1;points=[[0,0.5],[1,0.5]];portConstraint=eastwest;movable=1;resizable=1;deletable=1;editable=1;locked=0;connectable=1;" parent="_YQEFRuC_VUM07GQXSP8-98" vertex="1">
          <mxGeometry y="26" width="279.74" height="20.343639291465372" as="geometry" />
        </mxCell>
        <mxCell id="_YQEFRuC_VUM07GQXSP8-102" value="" style="line;strokeWidth=1;fillColor=none;align=left;verticalAlign=middle;spacingTop=-1;spacingLeft=3;spacingRight=3;rotatable=1;labelPosition=right;points=[];portConstraint=eastwest;movable=1;resizable=1;deletable=1;editable=1;locked=0;connectable=1;" parent="_YQEFRuC_VUM07GQXSP8-98" vertex="1">
          <mxGeometry y="46.34363929146537" width="279.74" height="6.2595813204508834" as="geometry" />
        </mxCell>
        <mxCell id="DitG0eytX2IhtNALohOV-1" value="+ Firestation(stationNumber: int)" style="text;strokeColor=none;fillColor=none;align=left;verticalAlign=top;spacingLeft=4;spacingRight=4;overflow=hidden;rotatable=1;points=[[0,0.5],[1,0.5]];portConstraint=eastwest;movable=1;resizable=1;deletable=1;editable=1;locked=0;connectable=1;" parent="_YQEFRuC_VUM07GQXSP8-98" vertex="1">
          <mxGeometry y="52.60322061191626" width="279.74" height="20.343639291465372" as="geometry" />
        </mxCell>
        <mxCell id="tOSdcn7apsX1avnee6yK-39" value="+ attachAddress(: Address): void" style="text;strokeColor=none;fillColor=none;align=left;verticalAlign=top;spacingLeft=4;spacingRight=4;overflow=hidden;rotatable=1;points=[[0,0.5],[1,0.5]];portConstraint=eastwest;movable=1;resizable=1;deletable=1;editable=1;locked=0;connectable=1;" parent="_YQEFRuC_VUM07GQXSP8-98" vertex="1">
          <mxGeometry y="72.94685990338164" width="279.74" height="20.343639291465372" as="geometry" />
        </mxCell>
        <mxCell id="tOSdcn7apsX1avnee6yK-40" value="+ getAddressS(): Map&lt;address: String, : Address&gt;)" style="text;strokeColor=none;fillColor=none;align=left;verticalAlign=top;spacingLeft=4;spacingRight=4;overflow=hidden;rotatable=1;points=[[0,0.5],[1,0.5]];portConstraint=eastwest;movable=1;resizable=1;deletable=1;editable=1;locked=0;connectable=1;" parent="_YQEFRuC_VUM07GQXSP8-98" vertex="1">
          <mxGeometry y="93.290499194847" width="279.74" height="20.343639291465372" as="geometry" />
        </mxCell>
        <mxCell id="ZxJXqssnahOHYMhJ38kJ-6" value="" style="endArrow=none;html=1;rounded=0;align=center;verticalAlign=top;endFill=0;labelBackgroundColor=none;strokeColor=#FF0000;entryX=-0.012;entryY=0.13;entryDx=0;entryDy=0;entryPerimeter=0;exitX=1;exitY=0.25;exitDx=0;exitDy=0;movable=1;resizable=1;rotatable=1;deletable=1;editable=1;locked=0;connectable=1;" parent="1" source="tOSdcn7apsX1avnee6yK-1" target="_YQEFRuC_VUM07GQXSP8-98" edge="1">
          <mxGeometry relative="1" as="geometry">
            <mxPoint x="-1086.6399999999999" y="-386.0817990338164" as="sourcePoint" />
            <mxPoint x="179.92000000000007" y="-790.0282415458936" as="targetPoint" />
          </mxGeometry>
        </mxCell>
        <mxCell id="ZxJXqssnahOHYMhJ38kJ-7" value="1..*" style="resizable=1;html=1;align=left;verticalAlign=top;labelBackgroundColor=none;glass=0;gradientColor=none;movable=1;rotatable=1;deletable=1;editable=1;locked=0;connectable=1;" parent="ZxJXqssnahOHYMhJ38kJ-6" connectable="0" vertex="1">
          <mxGeometry x="-1" relative="1" as="geometry">
            <mxPoint as="offset" />
          </mxGeometry>
        </mxCell>
        <mxCell id="ZxJXqssnahOHYMhJ38kJ-8" value="&lt;div style=&quot;text-align: left;&quot;&gt;&lt;span style=&quot;background-color: initial;&quot;&gt;1..*&lt;/span&gt;&lt;/div&gt;" style="resizable=1;html=1;align=right;verticalAlign=bottom;labelBackgroundColor=none;glass=0;gradientColor=none;movable=1;rotatable=1;deletable=1;editable=1;locked=0;connectable=1;" parent="ZxJXqssnahOHYMhJ38kJ-6" connectable="0" vertex="1">
          <mxGeometry x="1" relative="1" as="geometry">
            <mxPoint x="13" y="-15" as="offset" />
          </mxGeometry>
        </mxCell>
        <mxCell id="nXKcTEVYwteALs7NC0Xw-1" value="" style="shape=folder;fontStyle=1;spacingTop=10;tabWidth=100;tabHeight=20;tabPosition=left;html=1;fillColor=#fff2cc;strokeColor=#d6b656;container=0;movable=1;resizable=1;rotatable=1;deletable=1;editable=1;locked=0;connectable=1;" parent="1" vertex="1">
          <mxGeometry x="-1640" y="-1060" width="500" height="350" as="geometry" />
        </mxCell>
        <mxCell id="ZxJXqssnahOHYMhJ38kJ-24" value="AddressController" style="swimlane;fontStyle=1;align=center;verticalAlign=top;childLayout=stackLayout;horizontal=1;startSize=26;horizontalStack=0;resizeParent=1;resizeParentMax=0;resizeLast=0;collapsible=1;marginBottom=0;fillColor=#fff2cc;strokeColor=#000000;movable=1;resizable=1;rotatable=1;deletable=1;editable=1;locked=0;connectable=1;" parent="1" vertex="1">
          <mxGeometry x="-1632.56" y="-1034" width="472.56" height="114" as="geometry" />
        </mxCell>
        <mxCell id="ZxJXqssnahOHYMhJ38kJ-28" value="" style="line;strokeWidth=1;fillColor=none;align=left;verticalAlign=middle;spacingTop=-1;spacingLeft=3;spacingRight=3;rotatable=1;labelPosition=right;points=[];portConstraint=eastwest;movable=1;resizable=1;deletable=1;editable=1;locked=0;connectable=1;" parent="ZxJXqssnahOHYMhJ38kJ-24" vertex="1">
          <mxGeometry y="26" width="472.56" height="8" as="geometry" />
        </mxCell>
        <mxCell id="tOSdcn7apsX1avnee6yK-67" value="&#x9;+ childAlertAddress(: Optional&lt;String&gt;): List&lt;AddressPersonChildrenDTO&gt;" style="text;strokeColor=none;fillColor=none;align=left;verticalAlign=top;spacingLeft=4;spacingRight=4;overflow=hidden;rotatable=1;points=[[0,0.5],[1,0.5]];portConstraint=eastwest;movable=1;resizable=1;deletable=1;editable=1;locked=0;connectable=1;" parent="ZxJXqssnahOHYMhJ38kJ-24" vertex="1">
          <mxGeometry y="34" width="472.56" height="26" as="geometry" />
        </mxCell>
        <mxCell id="tOSdcn7apsX1avnee6yK-69" value="+ fireAddress(: Optional&lt;String&gt;): List&lt;AddressPersonDTO&gt;" style="text;strokeColor=none;fillColor=none;align=left;verticalAlign=top;spacingLeft=4;spacingRight=4;overflow=hidden;rotatable=1;points=[[0,0.5],[1,0.5]];portConstraint=eastwest;movable=1;resizable=1;deletable=1;editable=1;locked=0;connectable=1;" parent="ZxJXqssnahOHYMhJ38kJ-24" vertex="1">
          <mxGeometry y="60" width="472.56" height="28" as="geometry" />
        </mxCell>
        <mxCell id="tOSdcn7apsX1avnee6yK-72" value="+ communityEmailCity(city: Optional&lt;String&gt;): List&lt;AddressPersonEmailDTO&gt;" style="text;strokeColor=none;fillColor=none;align=left;verticalAlign=top;spacingLeft=4;spacingRight=4;overflow=hidden;rotatable=1;points=[[0,0.5],[1,0.5]];portConstraint=eastwest;movable=1;resizable=1;deletable=1;editable=1;locked=0;connectable=1;" parent="ZxJXqssnahOHYMhJ38kJ-24" vertex="1">
          <mxGeometry y="88" width="472.56" height="26" as="geometry" />
        </mxCell>
        <mxCell id="HpJ095s4Z6i443x8LYtv-1" value="controller" style="text;html=1;align=center;verticalAlign=middle;resizable=1;points=[];autosize=1;strokeColor=#d6b656;fillColor=#fff2cc;glass=0;movable=1;rotatable=1;deletable=1;editable=1;locked=0;connectable=1;" parent="1" vertex="1">
          <mxGeometry x="-1640.1291824900266" y="-1059.9965700483092" width="60" height="20" as="geometry" />
        </mxCell>
        <mxCell id="ZxJXqssnahOHYMhJ38kJ-39" value="" style="shape=folder;fontStyle=1;spacingTop=10;tabWidth=100;tabHeight=20;tabPosition=left;html=1;fillColor=#e1d5e7;strokeColor=#9673a6;movable=1;resizable=1;rotatable=1;deletable=1;editable=1;locked=0;connectable=1;" parent="1" vertex="1">
          <mxGeometry x="-1130" y="-1149" width="650" height="519" as="geometry" />
        </mxCell>
        <mxCell id="ZxJXqssnahOHYMhJ38kJ-40" value="services" style="text;html=1;align=center;verticalAlign=middle;resizable=1;points=[];autosize=1;strokeColor=#9673a6;fillColor=#e1d5e7;glass=0;movable=1;rotatable=1;deletable=1;editable=1;locked=0;connectable=1;" parent="1" vertex="1">
          <mxGeometry x="-1130" y="-1148.9974233237438" width="60" height="20" as="geometry" />
        </mxCell>
        <mxCell id="ZxJXqssnahOHYMhJ38kJ-41" value="&lt;&lt;Interface&gt;&gt;&#xa;FireStationService" style="swimlane;fontStyle=3;childLayout=stackLayout;horizontal=1;startSize=51;fillColor=none;horizontalStack=0;resizeParent=1;resizeParentMax=0;resizeLast=0;collapsible=1;marginBottom=0;movable=1;resizable=1;rotatable=1;deletable=1;editable=1;locked=0;connectable=1;" parent="1" vertex="1">
          <mxGeometry x="-1110" y="-1120" width="600" height="129" as="geometry" />
        </mxCell>
        <mxCell id="ZxJXqssnahOHYMhJ38kJ-42" value="+ findPersonsByFireStation(stationNum: int): List&lt;Person&gt;" style="text;strokeColor=none;fillColor=none;align=left;verticalAlign=top;spacingLeft=4;spacingRight=4;overflow=hidden;rotatable=1;points=[[0,0.5],[1,0.5]];portConstraint=eastwest;movable=1;resizable=1;deletable=1;editable=1;locked=0;connectable=1;" parent="ZxJXqssnahOHYMhJ38kJ-41" vertex="1">
          <mxGeometry y="51" width="600" height="26" as="geometry" />
        </mxCell>
        <mxCell id="ZxJXqssnahOHYMhJ38kJ-43" value="+ findPhoneNumbersByFireStation(stationNum: int) : List&lt;Person&gt;" style="text;strokeColor=none;fillColor=none;align=left;verticalAlign=top;spacingLeft=4;spacingRight=4;overflow=hidden;rotatable=1;points=[[0,0.5],[1,0.5]];portConstraint=eastwest;movable=1;resizable=1;deletable=1;editable=1;locked=0;connectable=1;" parent="ZxJXqssnahOHYMhJ38kJ-41" vertex="1">
          <mxGeometry y="77" width="600" height="26" as="geometry" />
        </mxCell>
        <mxCell id="M8iBlHHp7jSmqoKljAnf-2" value="+ findAddressPersonsByFiresations(List&lt;stationNum: Integer&gt;): List&lt;Person&gt;" style="text;strokeColor=none;fillColor=none;align=left;verticalAlign=top;spacingLeft=4;spacingRight=4;overflow=hidden;rotatable=1;points=[[0,0.5],[1,0.5]];portConstraint=eastwest;movable=1;resizable=1;deletable=1;editable=1;locked=0;connectable=1;" parent="ZxJXqssnahOHYMhJ38kJ-41" vertex="1">
          <mxGeometry y="103" width="600" height="26" as="geometry" />
        </mxCell>
        <mxCell id="ZxJXqssnahOHYMhJ38kJ-45" value="&lt;&lt;Interface&gt;&gt;&#xa;AddressService" style="swimlane;fontStyle=3;childLayout=stackLayout;horizontal=1;startSize=50;fillColor=none;horizontalStack=0;resizeParent=1;resizeParentMax=0;resizeLast=0;collapsible=1;marginBottom=0;movable=1;resizable=1;rotatable=1;deletable=1;editable=1;locked=0;connectable=1;" parent="1" vertex="1">
          <mxGeometry x="-1110" y="-980" width="600" height="154" as="geometry" />
        </mxCell>
        <mxCell id="ZxJXqssnahOHYMhJ38kJ-46" value="+ findChildrenByAddress(address: String): List&lt;Person&gt;" style="text;strokeColor=none;fillColor=none;align=left;verticalAlign=top;spacingLeft=4;spacingRight=4;overflow=hidden;rotatable=1;points=[[0,0.5],[1,0.5]];portConstraint=eastwest;movable=1;resizable=1;deletable=1;editable=1;locked=0;connectable=1;" parent="ZxJXqssnahOHYMhJ38kJ-45" vertex="1">
          <mxGeometry y="50" width="600" height="26" as="geometry" />
        </mxCell>
        <mxCell id="M8iBlHHp7jSmqoKljAnf-1" value="+ findPersonsByAddress(address: String): List&lt;Person&gt;" style="text;strokeColor=none;fillColor=none;align=left;verticalAlign=top;spacingLeft=4;spacingRight=4;overflow=hidden;rotatable=1;points=[[0,0.5],[1,0.5]];portConstraint=eastwest;movable=1;resizable=1;deletable=1;editable=1;locked=0;connectable=1;" parent="ZxJXqssnahOHYMhJ38kJ-45" vertex="1">
          <mxGeometry y="76" width="600" height="26" as="geometry" />
        </mxCell>
        <mxCell id="fDODU5_W8LiwZZ4vn0nD-5" value="+ findemailPersonsByCity(city: String): List&lt;Person&gt;" style="text;strokeColor=none;fillColor=none;align=left;verticalAlign=top;spacingLeft=4;spacingRight=4;overflow=hidden;rotatable=1;points=[[0,0.5],[1,0.5]];portConstraint=eastwest;movable=1;resizable=1;deletable=1;editable=1;locked=0;connectable=1;" parent="ZxJXqssnahOHYMhJ38kJ-45" vertex="1">
          <mxGeometry y="102" width="600" height="26" as="geometry" />
        </mxCell>
        <mxCell id="USRTUU9e9MGLYhp3lKSy-10" value="+ findFirestationssByAddress(address: String): List&lt;Firestation&gt;" style="text;strokeColor=none;fillColor=none;align=left;verticalAlign=top;spacingLeft=4;spacingRight=4;overflow=hidden;rotatable=1;points=[[0,0.5],[1,0.5]];portConstraint=eastwest;movable=1;resizable=1;deletable=1;editable=1;locked=0;connectable=1;" parent="ZxJXqssnahOHYMhJ38kJ-45" vertex="1">
          <mxGeometry y="128" width="600" height="26" as="geometry" />
        </mxCell>
        <mxCell id="fDODU5_W8LiwZZ4vn0nD-1" value="&lt;&lt;Interface&gt;&gt;&#xa;PersonService" style="swimlane;fontStyle=3;childLayout=stackLayout;horizontal=1;startSize=50;fillColor=none;horizontalStack=0;resizeParent=1;resizeParentMax=0;resizeLast=0;collapsible=1;marginBottom=0;movable=1;resizable=1;rotatable=1;deletable=1;editable=1;locked=0;connectable=1;" parent="1" vertex="1">
          <mxGeometry x="-1110" y="-817" width="600" height="76" as="geometry" />
        </mxCell>
        <mxCell id="fDODU5_W8LiwZZ4vn0nD-2" value="+ findPersonsByFirstNameAndLastName(firstName: String, lastName: String): List&lt;Person&gt;" style="text;strokeColor=none;fillColor=none;align=left;verticalAlign=top;spacingLeft=4;spacingRight=4;overflow=hidden;rotatable=1;points=[[0,0.5],[1,0.5]];portConstraint=eastwest;movable=1;resizable=1;deletable=1;editable=1;locked=0;connectable=1;" parent="fDODU5_W8LiwZZ4vn0nD-1" vertex="1">
          <mxGeometry y="50" width="600" height="26" as="geometry" />
        </mxCell>
        <mxCell id="gW4IxIGInDRmWeXZWS_a-7" value="" style="resizable=1;html=1;align=left;verticalAlign=top;labelBackgroundColor=none;glass=0;gradientColor=none;movable=1;rotatable=1;deletable=1;editable=1;locked=0;connectable=1;" parent="1" connectable="0" vertex="1">
          <mxGeometry x="-1009.74" y="-487.98956457326904" as="geometry">
            <mxPoint x="-338" y="-6" as="offset" />
          </mxGeometry>
        </mxCell>
        <mxCell id="gW4IxIGInDRmWeXZWS_a-8" value="1" style="resizable=1;html=1;align=left;verticalAlign=top;labelBackgroundColor=none;glass=0;gradientColor=none;movable=1;rotatable=1;deletable=1;editable=1;locked=0;connectable=1;" parent="1" connectable="0" vertex="1">
          <mxGeometry x="-910" y="-609.999564573269" as="geometry" />
        </mxCell>
        <mxCell id="gW4IxIGInDRmWeXZWS_a-79" value="repository" style="shape=folder;fontStyle=1;tabWidth=110;tabHeight=30;tabPosition=left;html=1;boundedLbl=1;labelInHeader=1;container=0;collapsible=0;fontSize=12;fillColor=#f8cecc;strokeColor=#b85450;movable=1;resizable=1;rotatable=1;deletable=1;editable=1;locked=0;connectable=1;" parent="1" vertex="1">
          <mxGeometry x="-350.27" y="-884" width="560" height="663" as="geometry" />
        </mxCell>
        <mxCell id="gW4IxIGInDRmWeXZWS_a-122" value="" style="endArrow=none;html=1;rounded=0;align=center;verticalAlign=top;endFill=0;labelBackgroundColor=none;fontSize=12;entryX=0.558;entryY=1;entryDx=0;entryDy=0;entryPerimeter=0;exitX=0.133;exitY=0.009;exitDx=0;exitDy=0;exitPerimeter=0;movable=1;resizable=1;rotatable=1;deletable=1;editable=1;locked=0;connectable=1;" parent="1" source="_YQEFRuC_VUM07GQXSP8-57" target="gW4IxIGInDRmWeXZWS_a-123" edge="1">
          <mxGeometry relative="1" as="geometry">
            <mxPoint x="-1060" y="-629.9958454106281" as="sourcePoint" />
            <mxPoint x="-870" y="-485.52" as="targetPoint" />
          </mxGeometry>
        </mxCell>
        <mxCell id="gW4IxIGInDRmWeXZWS_a-123" value="Map&amp;lt;id: String, : MedicalRecord&amp;gt;" style="shape=note2;boundedLbl=1;whiteSpace=wrap;html=1;size=25;verticalAlign=top;align=center;fontSize=12;movable=1;resizable=1;rotatable=1;deletable=1;editable=1;locked=0;connectable=1;" parent="1" vertex="1">
          <mxGeometry x="-473" y="-792" width="120" height="64" as="geometry" />
        </mxCell>
        <mxCell id="gW4IxIGInDRmWeXZWS_a-127" value="&lt;&lt;Interface&gt;&gt;&#xa;JsonNodeRepository" style="swimlane;fontStyle=3;childLayout=stackLayout;horizontal=1;startSize=50;fillColor=none;horizontalStack=0;resizeParent=1;resizeParentMax=0;resizeLast=0;collapsible=1;marginBottom=0;movable=1;resizable=1;rotatable=1;deletable=1;editable=1;locked=0;connectable=1;" parent="1" vertex="1">
          <mxGeometry x="-337.77" y="-839.79" width="535" height="293.63413848631234" as="geometry" />
        </mxCell>
        <mxCell id="I-odZtCI1YUN6Ku1rCpY-5" value="- allAddressS: Map&lt;String, Address&gt;" style="text;strokeColor=none;fillColor=none;align=left;verticalAlign=top;spacingLeft=4;spacingRight=4;overflow=hidden;rotatable=1;points=[[0,0.5],[1,0.5]];portConstraint=eastwest;movable=1;resizable=1;deletable=1;editable=1;locked=0;connectable=1;" parent="gW4IxIGInDRmWeXZWS_a-127" vertex="1">
          <mxGeometry y="50" width="535" height="20.343639291465372" as="geometry" />
        </mxCell>
        <mxCell id="I-odZtCI1YUN6Ku1rCpY-6" value="- firestations: Map&lt;Integer, Firestation&gt;" style="text;strokeColor=none;fillColor=none;align=left;verticalAlign=top;spacingLeft=4;spacingRight=4;overflow=hidden;rotatable=1;points=[[0,0.5],[1,0.5]];portConstraint=eastwest;movable=1;resizable=1;deletable=1;editable=1;locked=0;connectable=1;" parent="gW4IxIGInDRmWeXZWS_a-127" vertex="1">
          <mxGeometry y="70.34363929146537" width="535" height="20.343639291465372" as="geometry" />
        </mxCell>
        <mxCell id="I-odZtCI1YUN6Ku1rCpY-7" value="- persons: Map&lt;String, Person&gt;" style="text;strokeColor=none;fillColor=none;align=left;verticalAlign=top;spacingLeft=4;spacingRight=4;overflow=hidden;rotatable=1;points=[[0,0.5],[1,0.5]];portConstraint=eastwest;movable=1;resizable=1;deletable=1;editable=1;locked=0;connectable=1;" parent="gW4IxIGInDRmWeXZWS_a-127" vertex="1">
          <mxGeometry y="90.68727858293073" width="535" height="20.343639291465372" as="geometry" />
        </mxCell>
        <mxCell id="I-odZtCI1YUN6Ku1rCpY-8" value="- allAddressS: Map&lt;String, Address&gt;" style="text;strokeColor=none;fillColor=none;align=left;verticalAlign=top;spacingLeft=4;spacingRight=4;overflow=hidden;rotatable=1;points=[[0,0.5],[1,0.5]];portConstraint=eastwest;movable=1;resizable=1;deletable=1;editable=1;locked=0;connectable=1;" parent="gW4IxIGInDRmWeXZWS_a-127" vertex="1">
          <mxGeometry y="111.0309178743961" width="535" height="20.343639291465372" as="geometry" />
        </mxCell>
        <mxCell id="I-odZtCI1YUN6Ku1rCpY-4" value="" style="line;strokeWidth=1;fillColor=none;align=left;verticalAlign=middle;spacingTop=-1;spacingLeft=3;spacingRight=3;rotatable=1;labelPosition=right;points=[];portConstraint=eastwest;movable=1;resizable=1;deletable=1;editable=1;locked=0;connectable=1;" parent="gW4IxIGInDRmWeXZWS_a-127" vertex="1">
          <mxGeometry y="131.37455716586146" width="535" height="6.2595813204508834" as="geometry" />
        </mxCell>
        <mxCell id="I-odZtCI1YUN6Ku1rCpY-1" value="+ jsonNodeServiceImpl(): void" style="text;strokeColor=none;fillColor=none;align=left;verticalAlign=top;spacingLeft=4;spacingRight=4;overflow=hidden;rotatable=1;points=[[0,0.5],[1,0.5]];portConstraint=eastwest;movable=1;resizable=1;deletable=1;editable=1;locked=0;connectable=1;" parent="gW4IxIGInDRmWeXZWS_a-127" vertex="1">
          <mxGeometry y="137.63413848631234" width="535" height="26" as="geometry" />
        </mxCell>
        <mxCell id="gW4IxIGInDRmWeXZWS_a-131" value="+ convertFirestations(allAddressS: Map&lt;address: String, : Address&gt;):Map&lt;: Integer, : Firestation&gt;" style="text;strokeColor=none;fillColor=none;align=left;verticalAlign=top;spacingLeft=4;spacingRight=4;overflow=hidden;rotatable=1;points=[[0,0.5],[1,0.5]];portConstraint=eastwest;movable=1;resizable=1;deletable=1;editable=1;locked=0;connectable=1;" parent="gW4IxIGInDRmWeXZWS_a-127" vertex="1">
          <mxGeometry y="163.63413848631234" width="535" height="26" as="geometry" />
        </mxCell>
        <mxCell id="gW4IxIGInDRmWeXZWS_a-128" value="+ convertPersons(allAddressS: Map&lt;address: String, : Address&gt;): Map&lt;id: String, : Person&gt;" style="text;strokeColor=none;fillColor=none;align=left;verticalAlign=top;spacingLeft=4;spacingRight=4;overflow=hidden;rotatable=1;points=[[0,0.5],[1,0.5]];portConstraint=eastwest;movable=1;resizable=1;deletable=1;editable=1;locked=0;connectable=1;" parent="gW4IxIGInDRmWeXZWS_a-127" vertex="1">
          <mxGeometry y="189.63413848631234" width="535" height="26" as="geometry" />
        </mxCell>
        <mxCell id="gW4IxIGInDRmWeXZWS_a-132" value="+ convertMedicalrecords(): Map&lt;id: String, : Medicalrecord&gt;" style="text;strokeColor=none;fillColor=none;align=left;verticalAlign=top;spacingLeft=4;spacingRight=4;overflow=hidden;rotatable=1;points=[[0,0.5],[1,0.5]];portConstraint=eastwest;movable=1;resizable=1;deletable=1;editable=1;locked=0;connectable=1;" parent="gW4IxIGInDRmWeXZWS_a-127" vertex="1">
          <mxGeometry y="215.63413848631234" width="535" height="26" as="geometry" />
        </mxCell>
        <mxCell id="gW4IxIGInDRmWeXZWS_a-115" value="+ setPersonsMedicalrecords(: Map&lt;id: String, Person&gt;): boolean" style="text;strokeColor=none;fillColor=none;align=left;verticalAlign=top;spacingLeft=4;spacingRight=4;overflow=hidden;rotatable=1;points=[[0,0.5],[1,0.5]];portConstraint=eastwest;movable=1;resizable=1;deletable=1;editable=1;locked=0;connectable=1;" parent="gW4IxIGInDRmWeXZWS_a-127" vertex="1">
          <mxGeometry y="241.63413848631234" width="535" height="26" as="geometry" />
        </mxCell>
        <mxCell id="AdAsgxLj9f2kZuYANCnb-6" value="+ setAge(Person person); boolean" style="text;strokeColor=none;fillColor=none;align=left;verticalAlign=top;spacingLeft=4;spacingRight=4;overflow=hidden;rotatable=1;points=[[0,0.5],[1,0.5]];portConstraint=eastwest;movable=1;resizable=1;deletable=1;editable=1;locked=0;connectable=1;" parent="gW4IxIGInDRmWeXZWS_a-127" vertex="1">
          <mxGeometry y="267.63413848631234" width="535" height="26" as="geometry" />
        </mxCell>
        <mxCell id="tOSdcn7apsX1avnee6yK-1" value="+ Address" style="swimlane;fontStyle=1;align=center;verticalAlign=top;childLayout=stackLayout;horizontal=1;startSize=26;horizontalStack=0;resizeParent=1;resizeParentMax=0;resizeLast=0;collapsible=1;marginBottom=0;fillColor=#d5e8d4;strokeColor=#000000;movable=1;resizable=1;rotatable=1;deletable=1;editable=1;locked=0;connectable=1;" parent="1" vertex="1">
          <mxGeometry x="-900" y="-546.16" width="235" height="195.00869565217383" as="geometry" />
        </mxCell>
        <mxCell id="tOSdcn7apsX1avnee6yK-3" value="- address: String" style="text;strokeColor=none;fillColor=none;align=left;verticalAlign=top;spacingLeft=4;spacingRight=4;overflow=hidden;rotatable=1;points=[[0,0.5],[1,0.5]];portConstraint=eastwest;movable=1;resizable=1;deletable=1;editable=1;locked=0;connectable=1;" parent="tOSdcn7apsX1avnee6yK-1" vertex="1">
          <mxGeometry y="26" width="235" height="20.343639291465372" as="geometry" />
        </mxCell>
        <mxCell id="_YQEFRuC_VUM07GQXSP8-18" value="- city: String" style="text;strokeColor=none;fillColor=none;align=left;verticalAlign=top;spacingLeft=4;spacingRight=4;overflow=hidden;rotatable=1;points=[[0,0.5],[1,0.5]];portConstraint=eastwest;movable=1;resizable=1;deletable=1;editable=1;locked=0;connectable=1;" parent="tOSdcn7apsX1avnee6yK-1" vertex="1">
          <mxGeometry y="46.34363929146537" width="235" height="20.343639291465372" as="geometry" />
        </mxCell>
        <mxCell id="_YQEFRuC_VUM07GQXSP8-28" value="- zip: String" style="text;strokeColor=none;fillColor=none;align=left;verticalAlign=top;spacingLeft=4;spacingRight=4;overflow=hidden;rotatable=1;points=[[0,0.5],[1,0.5]];portConstraint=eastwest;movable=1;resizable=1;deletable=1;editable=1;locked=0;connectable=1;" parent="tOSdcn7apsX1avnee6yK-1" vertex="1">
          <mxGeometry y="66.68727858293074" width="235" height="20.343639291465372" as="geometry" />
        </mxCell>
        <mxCell id="tOSdcn7apsX1avnee6yK-4" value="" style="line;strokeWidth=1;fillColor=none;align=left;verticalAlign=middle;spacingTop=-1;spacingLeft=3;spacingRight=3;rotatable=1;labelPosition=right;points=[];portConstraint=eastwest;movable=1;resizable=1;deletable=1;editable=1;locked=0;connectable=1;" parent="tOSdcn7apsX1avnee6yK-1" vertex="1">
          <mxGeometry y="87.03091787439612" width="235" height="6.2595813204508834" as="geometry" />
        </mxCell>
        <mxCell id="tOSdcn7apsX1avnee6yK-24" value="+ Address(address: String):" style="text;strokeColor=none;fillColor=none;align=left;verticalAlign=top;spacingLeft=4;spacingRight=4;overflow=hidden;rotatable=1;points=[[0,0.5],[1,0.5]];portConstraint=eastwest;movable=1;resizable=1;deletable=1;editable=1;locked=0;connectable=1;" parent="tOSdcn7apsX1avnee6yK-1" vertex="1">
          <mxGeometry y="93.290499194847" width="235" height="20.343639291465372" as="geometry" />
        </mxCell>
        <mxCell id="tOSdcn7apsX1avnee6yK-27" value="+ attachPerson(: Person): void" style="text;strokeColor=none;fillColor=none;align=left;verticalAlign=top;spacingLeft=4;spacingRight=4;overflow=hidden;rotatable=1;points=[[0,0.5],[1,0.5]];portConstraint=eastwest;movable=1;resizable=1;deletable=1;editable=1;locked=0;connectable=1;" parent="tOSdcn7apsX1avnee6yK-1" vertex="1">
          <mxGeometry y="113.63413848631237" width="235" height="20.343639291465372" as="geometry" />
        </mxCell>
        <mxCell id="tOSdcn7apsX1avnee6yK-35" value="+ getPersons(): Map&lt;id: String, : Person&gt;" style="text;strokeColor=none;fillColor=none;align=left;verticalAlign=top;spacingLeft=4;spacingRight=4;overflow=hidden;rotatable=1;points=[[0,0.5],[1,0.5]];portConstraint=eastwest;movable=1;resizable=1;deletable=1;editable=1;locked=0;connectable=1;" parent="tOSdcn7apsX1avnee6yK-1" vertex="1">
          <mxGeometry y="133.97777777777773" width="235" height="20.343639291465372" as="geometry" />
        </mxCell>
        <mxCell id="DitG0eytX2IhtNALohOV-3" value="+ putFirestation(: Firestation): void" style="text;strokeColor=none;fillColor=none;align=left;verticalAlign=top;spacingLeft=4;spacingRight=4;overflow=hidden;rotatable=1;points=[[0,0.5],[1,0.5]];portConstraint=eastwest;movable=1;resizable=1;deletable=1;editable=1;locked=0;connectable=1;" parent="tOSdcn7apsX1avnee6yK-1" vertex="1">
          <mxGeometry y="154.3214170692431" width="235" height="20.343639291465372" as="geometry" />
        </mxCell>
        <mxCell id="USRTUU9e9MGLYhp3lKSy-137" value="+ equals(address: String):" style="text;strokeColor=none;fillColor=none;align=left;verticalAlign=top;spacingLeft=4;spacingRight=4;overflow=hidden;rotatable=1;points=[[0,0.5],[1,0.5]];portConstraint=eastwest;movable=1;resizable=1;deletable=1;editable=1;locked=0;connectable=1;" parent="tOSdcn7apsX1avnee6yK-1" vertex="1">
          <mxGeometry y="174.66505636070846" width="235" height="20.343639291465372" as="geometry" />
        </mxCell>
        <mxCell id="tOSdcn7apsX1avnee6yK-20" value="" style="endArrow=none;html=1;rounded=0;align=center;verticalAlign=top;endFill=0;labelBackgroundColor=none;strokeColor=#FF0000;exitX=1;exitY=0.05;exitDx=0;exitDy=0;exitPerimeter=0;entryX=0.004;entryY=0.096;entryDx=0;entryDy=0;entryPerimeter=0;movable=1;resizable=1;rotatable=1;deletable=1;editable=1;locked=0;connectable=1;" parent="1" source="_YQEFRuC_VUM07GQXSP8-16" target="tOSdcn7apsX1avnee6yK-1" edge="1">
          <mxGeometry relative="1" as="geometry">
            <mxPoint x="-1280" y="-310" as="sourcePoint" />
            <mxPoint x="-1120" y="-310" as="targetPoint" />
          </mxGeometry>
        </mxCell>
        <mxCell id="tOSdcn7apsX1avnee6yK-21" value="1..*" style="resizable=1;html=1;align=left;verticalAlign=top;labelBackgroundColor=none;movable=1;rotatable=1;deletable=1;editable=1;locked=0;connectable=1;" parent="tOSdcn7apsX1avnee6yK-20" connectable="0" vertex="1">
          <mxGeometry x="-1" relative="1" as="geometry" />
        </mxCell>
        <mxCell id="tOSdcn7apsX1avnee6yK-22" value="&lt;span style=&quot;text-align: left&quot;&gt;1&lt;/span&gt;" style="resizable=1;html=1;align=right;verticalAlign=bottom;labelBackgroundColor=none;movable=1;rotatable=1;deletable=1;editable=1;locked=0;connectable=1;" parent="tOSdcn7apsX1avnee6yK-20" connectable="0" vertex="1">
          <mxGeometry x="1" relative="1" as="geometry" />
        </mxCell>
        <mxCell id="tOSdcn7apsX1avnee6yK-44" value="" style="endArrow=none;html=1;rounded=0;align=center;verticalAlign=top;endFill=0;labelBackgroundColor=none;strokeColor=#FF0000;entryX=1.003;entryY=0.108;entryDx=0;entryDy=0;entryPerimeter=0;exitX=-0.001;exitY=0.03;exitDx=0;exitDy=0;exitPerimeter=0;movable=1;resizable=1;rotatable=1;deletable=1;editable=1;locked=0;connectable=1;" parent="1" source="gW4IxIGInDRmWeXZWS_a-79" target="ZxJXqssnahOHYMhJ38kJ-39" edge="1">
          <mxGeometry relative="1" as="geometry">
            <mxPoint x="-910" y="-680" as="sourcePoint" />
            <mxPoint x="-750" y="-680" as="targetPoint" />
          </mxGeometry>
        </mxCell>
        <mxCell id="tOSdcn7apsX1avnee6yK-45" value="1" style="resizable=1;html=1;align=left;verticalAlign=top;labelBackgroundColor=none;movable=1;rotatable=1;deletable=1;editable=1;locked=0;connectable=1;" parent="tOSdcn7apsX1avnee6yK-44" connectable="0" vertex="1">
          <mxGeometry x="-1" relative="1" as="geometry">
            <mxPoint x="-19" y="-26" as="offset" />
          </mxGeometry>
        </mxCell>
        <mxCell id="tOSdcn7apsX1avnee6yK-46" value="&lt;span style=&quot;text-align: left&quot;&gt;0&lt;/span&gt;" style="resizable=1;html=1;align=right;verticalAlign=bottom;labelBackgroundColor=none;movable=1;rotatable=1;deletable=1;editable=1;locked=0;connectable=1;" parent="tOSdcn7apsX1avnee6yK-44" connectable="0" vertex="1">
          <mxGeometry x="1" relative="1" as="geometry">
            <mxPoint y="22" as="offset" />
          </mxGeometry>
        </mxCell>
        <mxCell id="tOSdcn7apsX1avnee6yK-47" value="" style="endArrow=none;html=1;rounded=0;align=center;verticalAlign=top;endFill=0;labelBackgroundColor=none;strokeColor=#FF0000;entryX=0;entryY=0;entryDx=0;entryDy=188.25;entryPerimeter=0;exitX=0.779;exitY=0.051;exitDx=0;exitDy=0;exitPerimeter=0;movable=1;resizable=1;rotatable=1;deletable=1;editable=1;locked=0;connectable=1;" parent="1" source="s-YFi4-1TaiG5wxw9o94-1" target="gW4IxIGInDRmWeXZWS_a-79" edge="1">
          <mxGeometry relative="1" as="geometry">
            <mxPoint x="-910" y="-680" as="sourcePoint" />
            <mxPoint x="-750" y="-680" as="targetPoint" />
          </mxGeometry>
        </mxCell>
        <mxCell id="tOSdcn7apsX1avnee6yK-48" value="*" style="resizable=1;html=1;align=left;verticalAlign=top;labelBackgroundColor=none;movable=1;rotatable=1;deletable=1;editable=1;locked=0;connectable=1;" parent="tOSdcn7apsX1avnee6yK-47" connectable="0" vertex="1">
          <mxGeometry x="-1" relative="1" as="geometry">
            <mxPoint x="-16" y="-21" as="offset" />
          </mxGeometry>
        </mxCell>
        <mxCell id="tOSdcn7apsX1avnee6yK-49" value="&lt;span style=&quot;text-align: left&quot;&gt;0&lt;/span&gt;" style="resizable=1;html=1;align=right;verticalAlign=bottom;labelBackgroundColor=none;movable=1;rotatable=1;deletable=1;editable=1;locked=0;connectable=1;" parent="tOSdcn7apsX1avnee6yK-47" connectable="0" vertex="1">
          <mxGeometry x="1" relative="1" as="geometry">
            <mxPoint y="28" as="offset" />
          </mxGeometry>
        </mxCell>
        <mxCell id="AdAsgxLj9f2kZuYANCnb-10" value="&lt;&lt;Interface&gt;&gt;&#xa;StringService" style="swimlane;fontStyle=3;childLayout=stackLayout;horizontal=1;startSize=46;fillColor=none;horizontalStack=0;resizeParent=1;resizeParentMax=0;resizeLast=0;collapsible=1;marginBottom=0;movable=1;resizable=1;rotatable=1;deletable=1;editable=1;locked=0;connectable=1;" parent="1" vertex="1">
          <mxGeometry x="-1110" y="-720" width="600" height="72" as="geometry" />
        </mxCell>
        <mxCell id="jNMQZEK8fxUkL67PKVae-1" value="+ upperCasingFirstLetter(String word): String" style="text;strokeColor=none;fillColor=none;align=left;verticalAlign=top;spacingLeft=4;spacingRight=4;overflow=hidden;rotatable=1;points=[[0,0.5],[1,0.5]];portConstraint=eastwest;movable=1;resizable=1;deletable=1;editable=1;locked=0;connectable=1;" parent="AdAsgxLj9f2kZuYANCnb-10" vertex="1">
          <mxGeometry y="46" width="600" height="26" as="geometry" />
        </mxCell>
        <mxCell id="gW4IxIGInDRmWeXZWS_a-100" value="&lt;&lt;Interface&gt;&gt;&#xa;+ GetFromFile" style="swimlane;fontStyle=3;align=center;verticalAlign=top;childLayout=stackLayout;horizontal=1;startSize=44;horizontalStack=0;resizeParent=1;resizeParentMax=0;resizeLast=0;collapsible=1;marginBottom=0;fontSize=12;fillColor=#f8cecc;strokeColor=#000000;movable=1;resizable=1;rotatable=1;deletable=1;editable=1;locked=0;connectable=1;" parent="1" vertex="1">
          <mxGeometry x="-345" y="-535.66" width="535" height="105.66666666666667" as="geometry" />
        </mxCell>
        <mxCell id="gW4IxIGInDRmWeXZWS_a-102" value="" style="line;strokeWidth=1;fillColor=none;align=left;verticalAlign=middle;spacingTop=-1;spacingLeft=3;spacingRight=3;rotatable=1;labelPosition=right;points=[];portConstraint=eastwest;fontSize=12;movable=1;resizable=1;deletable=1;editable=1;locked=0;connectable=1;" parent="gW4IxIGInDRmWeXZWS_a-100" vertex="1">
          <mxGeometry y="44" width="535" height="8.222222222222223" as="geometry" />
        </mxCell>
        <mxCell id="gW4IxIGInDRmWeXZWS_a-103" value="+ getJsonEntityFromFile(EntityNames entityName): jsonArrayEntity: JsonNode " style="text;strokeColor=none;fillColor=none;align=left;verticalAlign=top;spacingLeft=4;spacingRight=4;overflow=hidden;rotatable=1;points=[[0,0.5],[1,0.5]];portConstraint=eastwest;fontSize=12;movable=1;resizable=1;deletable=1;editable=1;locked=0;connectable=1;" parent="gW4IxIGInDRmWeXZWS_a-100" vertex="1">
          <mxGeometry y="52.22222222222222" width="535" height="26.722222222222225" as="geometry" />
        </mxCell>
        <mxCell id="gW4IxIGInDRmWeXZWS_a-104" value="+ readJsonRootFromFile(): jsonObjectRoot: JsonNode " style="text;strokeColor=none;fillColor=none;align=left;verticalAlign=top;spacingLeft=4;spacingRight=4;overflow=hidden;rotatable=1;points=[[0,0.5],[1,0.5]];portConstraint=eastwest;fontSize=12;movable=1;resizable=1;deletable=1;editable=1;locked=0;connectable=1;" parent="gW4IxIGInDRmWeXZWS_a-100" vertex="1">
          <mxGeometry y="78.94444444444444" width="535" height="26.722222222222225" as="geometry" />
        </mxCell>
        <mxCell id="tOSdcn7apsX1avnee6yK-61" value="&lt;&lt;Interface&gt;&gt;&#xa;+ WriteToFile" style="swimlane;fontStyle=3;align=center;verticalAlign=top;childLayout=stackLayout;horizontal=1;startSize=44;horizontalStack=0;resizeParent=1;resizeParentMax=0;resizeLast=0;collapsible=1;marginBottom=0;fontSize=12;fillColor=#f8cecc;strokeColor=#000000;movable=1;resizable=1;rotatable=1;deletable=1;editable=1;locked=0;connectable=1;" parent="1" vertex="1">
          <mxGeometry x="-345" y="-412.6" width="535" height="78.94444444444444" as="geometry" />
        </mxCell>
        <mxCell id="tOSdcn7apsX1avnee6yK-62" value="" style="line;strokeWidth=1;fillColor=none;align=left;verticalAlign=middle;spacingTop=-1;spacingLeft=3;spacingRight=3;rotatable=1;labelPosition=right;points=[];portConstraint=eastwest;fontSize=12;movable=1;resizable=1;deletable=1;editable=1;locked=0;connectable=1;" parent="tOSdcn7apsX1avnee6yK-61" vertex="1">
          <mxGeometry y="44" width="535" height="8.222222222222221" as="geometry" />
        </mxCell>
        <mxCell id="tOSdcn7apsX1avnee6yK-63" value="+ writeToFile(: JsonNode): boolean" style="text;strokeColor=none;fillColor=none;align=left;verticalAlign=top;spacingLeft=4;spacingRight=4;overflow=hidden;rotatable=1;points=[[0,0.5],[1,0.5]];portConstraint=eastwest;fontSize=12;movable=1;resizable=1;deletable=1;editable=1;locked=0;connectable=1;" parent="tOSdcn7apsX1avnee6yK-61" vertex="1">
          <mxGeometry y="52.22222222222222" width="535" height="26.722222222222225" as="geometry" />
        </mxCell>
        <mxCell id="hOcRLQ-ypS5Yrs68aBAH-4" value="&lt;b&gt;&amp;lt;&amp;lt;enumeration&amp;gt;&amp;gt;&lt;br&gt;&lt;i style=&quot;&quot;&gt;+&amp;nbsp;EntityNames&lt;/i&gt;&lt;/b&gt;" style="swimlane;fontStyle=0;align=center;verticalAlign=top;childLayout=stackLayout;horizontal=1;startSize=40;horizontalStack=0;resizeParent=1;resizeParentMax=0;resizeLast=0;collapsible=0;marginBottom=0;html=1;fillColor=#f8cecc;strokeColor=#000000;movable=1;resizable=1;rotatable=1;deletable=1;editable=1;locked=0;connectable=1;" parent="1" vertex="1">
          <mxGeometry x="-345" y="-316.37" width="535" height="70.83333333333333" as="geometry" />
        </mxCell>
        <mxCell id="hOcRLQ-ypS5Yrs68aBAH-5" value="persons,firestations,medicalrecords;" style="text;html=1;strokeColor=none;fillColor=none;align=left;verticalAlign=middle;spacingLeft=4;spacingRight=4;overflow=hidden;rotatable=1;points=[[0,0.5],[1,0.5]];portConstraint=eastwest;movable=1;resizable=1;deletable=1;editable=1;locked=0;connectable=1;" parent="hOcRLQ-ypS5Yrs68aBAH-4" vertex="1">
          <mxGeometry y="40" width="535" height="30.83333333333333" as="geometry" />
        </mxCell>
        <mxCell id="USRTUU9e9MGLYhp3lKSy-11" value="FirestationController" style="swimlane;fontStyle=1;align=center;verticalAlign=top;childLayout=stackLayout;horizontal=1;startSize=26;horizontalStack=0;resizeParent=1;resizeParentMax=0;resizeLast=0;collapsible=1;marginBottom=0;fillColor=#fff2cc;strokeColor=#000000;movable=1;resizable=1;rotatable=1;deletable=1;editable=1;locked=0;connectable=1;" parent="1" vertex="1">
          <mxGeometry x="-1635.13" y="-912" width="475.13" height="112" as="geometry" />
        </mxCell>
        <mxCell id="USRTUU9e9MGLYhp3lKSy-12" value="" style="line;strokeWidth=1;fillColor=none;align=left;verticalAlign=middle;spacingTop=-1;spacingLeft=3;spacingRight=3;rotatable=1;labelPosition=right;points=[];portConstraint=eastwest;movable=1;resizable=1;deletable=1;editable=1;locked=0;connectable=1;" parent="USRTUU9e9MGLYhp3lKSy-11" vertex="1">
          <mxGeometry y="26" width="475.13" height="8" as="geometry" />
        </mxCell>
        <mxCell id="USRTUU9e9MGLYhp3lKSy-13" value="&#x9;+ firestationstationNumber(: Optional&lt;String&gt;): List&lt;FirestationPersonDTO&gt;" style="text;strokeColor=none;fillColor=none;align=left;verticalAlign=top;spacingLeft=4;spacingRight=4;overflow=hidden;rotatable=1;points=[[0,0.5],[1,0.5]];portConstraint=eastwest;movable=1;resizable=1;deletable=1;editable=1;locked=0;connectable=1;" parent="USRTUU9e9MGLYhp3lKSy-11" vertex="1">
          <mxGeometry y="34" width="475.13" height="26" as="geometry" />
        </mxCell>
        <mxCell id="USRTUU9e9MGLYhp3lKSy-15" value="&#x9;+ phoneAlertFirestationNumber(: Optional&lt;String&gt;): List&lt;FirestationPersonPhoneDTO&gt;" style="text;strokeColor=none;fillColor=none;align=left;verticalAlign=top;spacingLeft=4;spacingRight=4;overflow=hidden;rotatable=1;points=[[0,0.5],[1,0.5]];portConstraint=eastwest;movable=1;resizable=1;deletable=1;editable=1;locked=0;connectable=1;" parent="USRTUU9e9MGLYhp3lKSy-11" vertex="1">
          <mxGeometry y="60" width="475.13" height="26" as="geometry" />
        </mxCell>
        <mxCell id="USRTUU9e9MGLYhp3lKSy-17" value="+ floodStationNumbers(: Optional&lt;List&lt;String&gt;&gt;): List&lt;FirestationsPersonDTO&gt;" style="text;strokeColor=none;fillColor=none;align=left;verticalAlign=top;spacingLeft=4;spacingRight=4;overflow=hidden;rotatable=1;points=[[0,0.5],[1,0.5]];portConstraint=eastwest;movable=1;resizable=1;deletable=1;editable=1;locked=0;connectable=1;" parent="USRTUU9e9MGLYhp3lKSy-11" vertex="1">
          <mxGeometry y="86" width="475.13" height="26" as="geometry" />
        </mxCell>
        <mxCell id="USRTUU9e9MGLYhp3lKSy-20" value="PersonController" style="swimlane;fontStyle=1;align=center;verticalAlign=top;childLayout=stackLayout;horizontal=1;startSize=26;horizontalStack=0;resizeParent=1;resizeParentMax=0;resizeLast=0;collapsible=1;marginBottom=0;fillColor=#fff2cc;strokeColor=#000000;movable=1;resizable=1;rotatable=1;deletable=1;editable=1;locked=0;connectable=1;" parent="1" vertex="1">
          <mxGeometry x="-1632.56" y="-792" width="472.56" height="60" as="geometry" />
        </mxCell>
        <mxCell id="USRTUU9e9MGLYhp3lKSy-21" value="" style="line;strokeWidth=1;fillColor=none;align=left;verticalAlign=middle;spacingTop=-1;spacingLeft=3;spacingRight=3;rotatable=1;labelPosition=right;points=[];portConstraint=eastwest;movable=1;resizable=1;deletable=1;editable=1;locked=0;connectable=1;" parent="USRTUU9e9MGLYhp3lKSy-20" vertex="1">
          <mxGeometry y="26" width="472.56" height="8" as="geometry" />
        </mxCell>
        <mxCell id="USRTUU9e9MGLYhp3lKSy-27" value="+ personInfoFirstNameLastName(: Optional&lt;String&gt;,: Optional&lt;String&gt;): JsonNode" style="text;strokeColor=none;fillColor=none;align=left;verticalAlign=top;spacingLeft=4;spacingRight=4;overflow=hidden;rotatable=1;points=[[0,0.5],[1,0.5]];portConstraint=eastwest;movable=1;resizable=1;deletable=1;editable=1;locked=0;connectable=1;" parent="USRTUU9e9MGLYhp3lKSy-20" vertex="1">
          <mxGeometry y="34" width="472.56" height="26" as="geometry" />
        </mxCell>
        <mxCell id="USRTUU9e9MGLYhp3lKSy-31" value="&lt;span style=&quot;font-size: 12px;&quot;&gt;model&lt;/span&gt;" style="text;strokeColor=none;fillColor=none;html=1;fontSize=24;fontStyle=1;verticalAlign=middle;align=center;movable=1;resizable=1;rotatable=1;deletable=1;editable=1;locked=0;connectable=1;" parent="1" vertex="1">
          <mxGeometry x="-1190" y="-630" width="100" height="40" as="geometry" />
        </mxCell>
        <mxCell id="USRTUU9e9MGLYhp3lKSy-32" value="" style="shape=folder;fontStyle=1;spacingTop=10;tabWidth=100;tabHeight=20;tabPosition=left;html=1;fillColor=#dae8fc;strokeColor=#6c8ebf;container=0;movable=1;resizable=1;rotatable=1;deletable=1;editable=1;locked=0;connectable=1;" parent="1" vertex="1">
          <mxGeometry x="-1790" y="-724" width="610" height="554" as="geometry" />
        </mxCell>
        <mxCell id="USRTUU9e9MGLYhp3lKSy-33" value="&lt;span style=&quot;font-size: 12px;&quot;&gt;dto&lt;/span&gt;" style="text;strokeColor=none;fillColor=none;html=1;fontSize=24;fontStyle=1;verticalAlign=middle;align=center;movable=1;resizable=1;rotatable=1;deletable=1;editable=1;locked=0;connectable=1;" parent="1" vertex="1">
          <mxGeometry x="-1820" y="-741" width="100" height="40" as="geometry" />
        </mxCell>
        <mxCell id="USRTUU9e9MGLYhp3lKSy-34" value="AddressAdultChildDTO" style="swimlane;fontStyle=1;childLayout=stackLayout;horizontal=1;startSize=26;fillColor=none;horizontalStack=0;resizeParent=1;resizeParentMax=0;resizeLast=0;collapsible=1;marginBottom=0;movable=1;resizable=1;rotatable=1;deletable=1;editable=1;locked=0;connectable=1;" parent="1" vertex="1">
          <mxGeometry x="-1783" y="-692" width="173" height="104" as="geometry" />
        </mxCell>
        <mxCell id="USRTUU9e9MGLYhp3lKSy-35" value="- firstName: String" style="text;strokeColor=none;fillColor=none;align=left;verticalAlign=top;spacingLeft=4;spacingRight=4;overflow=hidden;rotatable=1;points=[[0,0.5],[1,0.5]];portConstraint=eastwest;movable=1;resizable=1;deletable=1;editable=1;locked=0;connectable=1;" parent="USRTUU9e9MGLYhp3lKSy-34" vertex="1">
          <mxGeometry y="26" width="173" height="26" as="geometry" />
        </mxCell>
        <mxCell id="USRTUU9e9MGLYhp3lKSy-36" value="- lastName: String" style="text;strokeColor=none;fillColor=none;align=left;verticalAlign=top;spacingLeft=4;spacingRight=4;overflow=hidden;rotatable=1;points=[[0,0.5],[1,0.5]];portConstraint=eastwest;movable=1;resizable=1;deletable=1;editable=1;locked=0;connectable=1;" parent="USRTUU9e9MGLYhp3lKSy-34" vertex="1">
          <mxGeometry y="52" width="173" height="26" as="geometry" />
        </mxCell>
        <mxCell id="USRTUU9e9MGLYhp3lKSy-37" value="- age: String" style="text;strokeColor=none;fillColor=none;align=left;verticalAlign=top;spacingLeft=4;spacingRight=4;overflow=hidden;rotatable=1;points=[[0,0.5],[1,0.5]];portConstraint=eastwest;movable=1;resizable=1;deletable=1;editable=1;locked=0;connectable=1;" parent="USRTUU9e9MGLYhp3lKSy-34" vertex="1">
          <mxGeometry y="78" width="173" height="26" as="geometry" />
        </mxCell>
        <mxCell id="USRTUU9e9MGLYhp3lKSy-38" value="AddressPersonDTOPerson" style="swimlane;fontStyle=1;childLayout=stackLayout;horizontal=1;startSize=26;fillColor=none;horizontalStack=0;resizeParent=1;resizeParentMax=0;resizeLast=0;collapsible=1;marginBottom=0;movable=1;resizable=1;rotatable=1;deletable=1;editable=1;locked=0;connectable=1;" parent="1" vertex="1">
          <mxGeometry x="-1783" y="-420" width="165.13" height="156" as="geometry" />
        </mxCell>
        <mxCell id="USRTUU9e9MGLYhp3lKSy-55" value="- lastName: String" style="text;strokeColor=none;fillColor=none;align=left;verticalAlign=top;spacingLeft=4;spacingRight=4;overflow=hidden;rotatable=1;points=[[0,0.5],[1,0.5]];portConstraint=eastwest;movable=1;resizable=1;deletable=1;editable=1;locked=0;connectable=1;" parent="USRTUU9e9MGLYhp3lKSy-38" vertex="1">
          <mxGeometry y="26" width="165.13" height="26" as="geometry" />
        </mxCell>
        <mxCell id="USRTUU9e9MGLYhp3lKSy-39" value="- phone: String" style="text;strokeColor=none;fillColor=none;align=left;verticalAlign=top;spacingLeft=4;spacingRight=4;overflow=hidden;rotatable=1;points=[[0,0.5],[1,0.5]];portConstraint=eastwest;movable=1;resizable=1;deletable=1;editable=1;locked=0;connectable=1;" parent="USRTUU9e9MGLYhp3lKSy-38" vertex="1">
          <mxGeometry y="52" width="165.13" height="26" as="geometry" />
        </mxCell>
        <mxCell id="USRTUU9e9MGLYhp3lKSy-54" value="- age: String" style="text;strokeColor=none;fillColor=none;align=left;verticalAlign=top;spacingLeft=4;spacingRight=4;overflow=hidden;rotatable=1;points=[[0,0.5],[1,0.5]];portConstraint=eastwest;movable=1;resizable=1;deletable=1;editable=1;locked=0;connectable=1;" parent="USRTUU9e9MGLYhp3lKSy-38" vertex="1">
          <mxGeometry y="78" width="165.13" height="26" as="geometry" />
        </mxCell>
        <mxCell id="USRTUU9e9MGLYhp3lKSy-41" value="- medications: List&lt;String&gt;" style="text;strokeColor=none;fillColor=none;align=left;verticalAlign=top;spacingLeft=4;spacingRight=4;overflow=hidden;rotatable=1;points=[[0,0.5],[1,0.5]];portConstraint=eastwest;movable=1;resizable=1;deletable=1;editable=1;locked=0;connectable=1;" parent="USRTUU9e9MGLYhp3lKSy-38" vertex="1">
          <mxGeometry y="104" width="165.13" height="26" as="geometry" />
        </mxCell>
        <mxCell id="USRTUU9e9MGLYhp3lKSy-56" value="- allergies: List&lt;String&gt;" style="text;strokeColor=none;fillColor=none;align=left;verticalAlign=top;spacingLeft=4;spacingRight=4;overflow=hidden;rotatable=1;points=[[0,0.5],[1,0.5]];portConstraint=eastwest;movable=1;resizable=1;deletable=1;editable=1;locked=0;connectable=1;" parent="USRTUU9e9MGLYhp3lKSy-38" vertex="1">
          <mxGeometry y="130" width="165.13" height="26" as="geometry" />
        </mxCell>
        <mxCell id="USRTUU9e9MGLYhp3lKSy-42" value="&lt;&lt;Interface&gt;&gt;&#xa;AddressPersonDTO" style="swimlane;fontStyle=3;childLayout=stackLayout;horizontal=1;startSize=40;fillColor=none;horizontalStack=0;resizeParent=1;resizeParentMax=0;resizeLast=0;collapsible=1;marginBottom=0;movable=1;resizable=1;rotatable=1;deletable=1;editable=1;locked=0;connectable=1;" parent="1" vertex="1">
          <mxGeometry x="-1766.5" y="-487.99" width="140" height="40" as="geometry" />
        </mxCell>
        <mxCell id="USRTUU9e9MGLYhp3lKSy-46" value="" style="endArrow=block;endSize=16;endFill=0;html=1;rounded=0;exitX=0.5;exitY=0;exitDx=0;exitDy=0;entryX=0.475;entryY=0.988;entryDx=0;entryDy=0;entryPerimeter=0;movable=1;resizable=1;rotatable=1;deletable=1;editable=1;locked=0;connectable=1;" parent="1" source="USRTUU9e9MGLYhp3lKSy-38" target="USRTUU9e9MGLYhp3lKSy-42" edge="1">
          <mxGeometry y="20" width="160" relative="1" as="geometry">
            <mxPoint x="-1379.9974746830585" y="-570" as="sourcePoint" />
            <mxPoint x="-1455.5" y="-499.748737341529" as="targetPoint" />
            <mxPoint as="offset" />
            <Array as="points" />
          </mxGeometry>
        </mxCell>
        <mxCell id="USRTUU9e9MGLYhp3lKSy-47" value="" style="endArrow=block;endSize=16;endFill=0;html=1;rounded=0;exitX=0.661;exitY=0.023;exitDx=0;exitDy=0;entryX=1;entryY=0.5;entryDx=0;entryDy=0;exitPerimeter=0;edgeStyle=orthogonalEdgeStyle;movable=1;resizable=1;rotatable=1;deletable=1;editable=1;locked=0;connectable=1;" parent="1" source="USRTUU9e9MGLYhp3lKSy-48" target="USRTUU9e9MGLYhp3lKSy-42" edge="1">
          <mxGeometry y="20" width="160" relative="1" as="geometry">
            <mxPoint x="-1204.4974746830585" y="-584" as="sourcePoint" />
            <mxPoint x="-1480" y="-540" as="targetPoint" />
            <mxPoint as="offset" />
          </mxGeometry>
        </mxCell>
        <mxCell id="USRTUU9e9MGLYhp3lKSy-48" value="AddressPersonDTOStationNumbers" style="swimlane;fontStyle=1;childLayout=stackLayout;horizontal=1;startSize=26;fillColor=none;horizontalStack=0;resizeParent=1;resizeParentMax=0;resizeLast=0;collapsible=1;marginBottom=0;movable=1;resizable=1;rotatable=1;deletable=1;editable=1;locked=0;connectable=1;" parent="1" vertex="1">
          <mxGeometry x="-1783" y="-260" width="280" height="86" as="geometry" />
        </mxCell>
        <mxCell id="USRTUU9e9MGLYhp3lKSy-57" value="- stationNumbers: List&lt;String&gt;" style="text;strokeColor=none;fillColor=none;align=left;verticalAlign=top;spacingLeft=4;spacingRight=4;overflow=hidden;rotatable=1;points=[[0,0.5],[1,0.5]];portConstraint=eastwest;movable=1;resizable=1;deletable=1;editable=1;locked=0;connectable=1;" parent="USRTUU9e9MGLYhp3lKSy-48" vertex="1">
          <mxGeometry y="26" width="280" height="26" as="geometry" />
        </mxCell>
        <mxCell id="USRTUU9e9MGLYhp3lKSy-76" value="" style="line;strokeWidth=1;fillColor=none;align=left;verticalAlign=middle;spacingTop=-1;spacingLeft=3;spacingRight=3;rotatable=1;labelPosition=right;points=[];portConstraint=eastwest;movable=1;resizable=1;deletable=1;editable=1;locked=0;connectable=1;" parent="USRTUU9e9MGLYhp3lKSy-48" vertex="1">
          <mxGeometry y="52" width="280" height="8" as="geometry" />
        </mxCell>
        <mxCell id="USRTUU9e9MGLYhp3lKSy-77" value="+AddressPersonDTOStationNumbers(List&lt;String&gt;)" style="text;strokeColor=none;fillColor=none;align=left;verticalAlign=top;spacingLeft=4;spacingRight=4;overflow=hidden;rotatable=1;points=[[0,0.5],[1,0.5]];portConstraint=eastwest;fontStyle=0;movable=1;resizable=1;deletable=1;editable=1;locked=0;connectable=1;" parent="USRTUU9e9MGLYhp3lKSy-48" vertex="1">
          <mxGeometry y="60" width="280" height="26" as="geometry" />
        </mxCell>
        <mxCell id="USRTUU9e9MGLYhp3lKSy-63" value="AddressPersonEmailDTO" style="swimlane;fontStyle=1;childLayout=stackLayout;horizontal=1;startSize=26;fillColor=none;horizontalStack=0;resizeParent=1;resizeParentMax=0;resizeLast=0;collapsible=1;marginBottom=0;movable=1;resizable=1;rotatable=1;deletable=1;editable=1;locked=0;connectable=1;" parent="1" vertex="1">
          <mxGeometry x="-1355.13" y="-260" width="165.13" height="86" as="geometry" />
        </mxCell>
        <mxCell id="USRTUU9e9MGLYhp3lKSy-67" value="- email: String" style="text;strokeColor=none;fillColor=none;align=left;verticalAlign=top;spacingLeft=4;spacingRight=4;overflow=hidden;rotatable=1;points=[[0,0.5],[1,0.5]];portConstraint=eastwest;movable=1;resizable=1;deletable=1;editable=1;locked=0;connectable=1;" parent="USRTUU9e9MGLYhp3lKSy-63" vertex="1">
          <mxGeometry y="26" width="165.13" height="26" as="geometry" />
        </mxCell>
        <mxCell id="USRTUU9e9MGLYhp3lKSy-74" value="" style="line;strokeWidth=1;fillColor=none;align=left;verticalAlign=middle;spacingTop=-1;spacingLeft=3;spacingRight=3;rotatable=1;labelPosition=right;points=[];portConstraint=eastwest;movable=1;resizable=1;deletable=1;editable=1;locked=0;connectable=1;" parent="USRTUU9e9MGLYhp3lKSy-63" vertex="1">
          <mxGeometry y="52" width="165.13" height="8" as="geometry" />
        </mxCell>
        <mxCell id="USRTUU9e9MGLYhp3lKSy-75" value="+ equals(): boolean" style="text;strokeColor=none;fillColor=none;align=left;verticalAlign=top;spacingLeft=4;spacingRight=4;overflow=hidden;rotatable=1;points=[[0,0.5],[1,0.5]];portConstraint=eastwest;movable=1;resizable=1;deletable=1;editable=1;locked=0;connectable=1;" parent="USRTUU9e9MGLYhp3lKSy-63" vertex="1">
          <mxGeometry y="60" width="165.13" height="26" as="geometry" />
        </mxCell>
        <mxCell id="USRTUU9e9MGLYhp3lKSy-68" value="&lt;&lt;Interface&gt;&gt;&#xa;FirestationPersonDTO" style="swimlane;fontStyle=3;childLayout=stackLayout;horizontal=1;startSize=40;fillColor=none;horizontalStack=0;resizeParent=1;resizeParentMax=0;resizeLast=0;collapsible=1;marginBottom=0;movable=1;resizable=1;rotatable=1;deletable=1;editable=1;locked=0;connectable=1;" parent="1" vertex="1">
          <mxGeometry x="-1574.93" y="-694.5" width="140" height="40" as="geometry" />
        </mxCell>
        <mxCell id="USRTUU9e9MGLYhp3lKSy-83" value="" style="endArrow=block;endSize=16;endFill=0;html=1;rounded=0;exitX=-0.021;exitY=0.074;exitDx=0;exitDy=0;exitPerimeter=0;entryX=0;entryY=0.5;entryDx=0;entryDy=0;edgeStyle=orthogonalEdgeStyle;movable=1;resizable=1;rotatable=1;deletable=1;editable=1;locked=0;connectable=1;" parent="1" source="USRTUU9e9MGLYhp3lKSy-69" target="USRTUU9e9MGLYhp3lKSy-68" edge="1">
          <mxGeometry y="20" width="160" relative="1" as="geometry">
            <mxPoint x="-1344.4974746830585" y="-602.6" as="sourcePoint" />
            <mxPoint x="-1550" y="-650" as="targetPoint" />
            <mxPoint as="offset" />
            <Array as="points">
              <mxPoint x="-1600" y="-630" />
              <mxPoint x="-1600" y="-674" />
            </Array>
          </mxGeometry>
        </mxCell>
        <mxCell id="USRTUU9e9MGLYhp3lKSy-84" value="FirestationPersonDTOStats" style="swimlane;fontStyle=1;childLayout=stackLayout;horizontal=1;startSize=26;fillColor=none;horizontalStack=0;resizeParent=1;resizeParentMax=0;resizeLast=0;collapsible=1;marginBottom=0;movable=1;resizable=1;rotatable=1;deletable=1;editable=1;locked=0;connectable=1;" parent="1" vertex="1">
          <mxGeometry x="-1390" y="-694.5" width="200" height="112" as="geometry" />
        </mxCell>
        <mxCell id="USRTUU9e9MGLYhp3lKSy-90" value="- adults: int" style="text;strokeColor=none;fillColor=none;align=left;verticalAlign=top;spacingLeft=4;spacingRight=4;overflow=hidden;rotatable=1;points=[[0,0.5],[1,0.5]];portConstraint=eastwest;movable=1;resizable=1;deletable=1;editable=1;locked=0;connectable=1;" parent="USRTUU9e9MGLYhp3lKSy-84" vertex="1">
          <mxGeometry y="26" width="200" height="26" as="geometry" />
        </mxCell>
        <mxCell id="USRTUU9e9MGLYhp3lKSy-73" value="- children: int" style="text;strokeColor=none;fillColor=none;align=left;verticalAlign=top;spacingLeft=4;spacingRight=4;overflow=hidden;rotatable=1;points=[[0,0.5],[1,0.5]];portConstraint=eastwest;movable=1;resizable=1;deletable=1;editable=1;locked=0;connectable=1;" parent="USRTUU9e9MGLYhp3lKSy-84" vertex="1">
          <mxGeometry y="52" width="200" height="26" as="geometry" />
        </mxCell>
        <mxCell id="USRTUU9e9MGLYhp3lKSy-88" value="" style="line;strokeWidth=1;fillColor=none;align=left;verticalAlign=middle;spacingTop=-1;spacingLeft=3;spacingRight=3;rotatable=1;labelPosition=right;points=[];portConstraint=eastwest;movable=1;resizable=1;deletable=1;editable=1;locked=0;connectable=1;" parent="USRTUU9e9MGLYhp3lKSy-84" vertex="1">
          <mxGeometry y="78" width="200" height="8" as="geometry" />
        </mxCell>
        <mxCell id="USRTUU9e9MGLYhp3lKSy-89" value="FirestationPersonDTOStats(int, int)" style="text;strokeColor=none;fillColor=none;align=left;verticalAlign=top;spacingLeft=4;spacingRight=4;overflow=hidden;rotatable=1;points=[[0,0.5],[1,0.5]];portConstraint=eastwest;fontStyle=0;movable=1;resizable=1;deletable=1;editable=1;locked=0;connectable=1;" parent="USRTUU9e9MGLYhp3lKSy-84" vertex="1">
          <mxGeometry y="86" width="200" height="26" as="geometry" />
        </mxCell>
        <mxCell id="USRTUU9e9MGLYhp3lKSy-92" style="edgeStyle=none;rounded=0;orthogonalLoop=1;jettySize=auto;html=1;exitX=1;exitY=0.75;exitDx=0;exitDy=0;movable=1;resizable=1;rotatable=1;deletable=1;editable=1;locked=0;connectable=1;" parent="1" source="USRTUU9e9MGLYhp3lKSy-33" target="USRTUU9e9MGLYhp3lKSy-33" edge="1">
          <mxGeometry relative="1" as="geometry" />
        </mxCell>
        <mxCell id="USRTUU9e9MGLYhp3lKSy-93" value="" style="endArrow=block;endSize=16;endFill=0;html=1;rounded=0;exitX=-0.025;exitY=0.086;exitDx=0;exitDy=0;entryX=1;entryY=0.25;entryDx=0;entryDy=0;exitPerimeter=0;movable=1;resizable=1;rotatable=1;deletable=1;editable=1;locked=0;connectable=1;" parent="1" source="USRTUU9e9MGLYhp3lKSy-84" target="USRTUU9e9MGLYhp3lKSy-68" edge="1">
          <mxGeometry y="20" width="160" relative="1" as="geometry">
            <mxPoint x="-1264.4974746830585" y="-610" as="sourcePoint" />
            <mxPoint x="-1340" y="-539.748737341529" as="targetPoint" />
            <mxPoint as="offset" />
            <Array as="points" />
          </mxGeometry>
        </mxCell>
        <mxCell id="USRTUU9e9MGLYhp3lKSy-69" value="FirestationPersonDTOPerson" style="swimlane;fontStyle=1;align=center;verticalAlign=top;childLayout=stackLayout;horizontal=1;startSize=26;horizontalStack=0;resizeParent=1;resizeParentMax=0;resizeLast=0;collapsible=1;marginBottom=0;fillColor=#dae8fc;strokeColor=#000000;movable=1;resizable=1;rotatable=1;deletable=1;editable=1;locked=0;connectable=1;" parent="1" vertex="1">
          <mxGeometry x="-1590" y="-646" width="190.13" height="216" as="geometry" />
        </mxCell>
        <mxCell id="USRTUU9e9MGLYhp3lKSy-70" value="- static numAdult: int" style="text;strokeColor=none;fillColor=none;align=left;verticalAlign=top;spacingLeft=4;spacingRight=4;overflow=hidden;rotatable=1;points=[[0,0.5],[1,0.5]];portConstraint=eastwest;movable=1;resizable=1;deletable=1;editable=1;locked=0;connectable=1;" parent="USRTUU9e9MGLYhp3lKSy-69" vertex="1">
          <mxGeometry y="26" width="190.13" height="26" as="geometry" />
        </mxCell>
        <mxCell id="USRTUU9e9MGLYhp3lKSy-91" value="- static numChild: int" style="text;strokeColor=none;fillColor=none;align=left;verticalAlign=top;spacingLeft=4;spacingRight=4;overflow=hidden;rotatable=1;points=[[0,0.5],[1,0.5]];portConstraint=eastwest;movable=1;resizable=1;deletable=1;editable=1;locked=0;connectable=1;" parent="USRTUU9e9MGLYhp3lKSy-69" vertex="1">
          <mxGeometry y="52" width="190.13" height="26" as="geometry" />
        </mxCell>
        <mxCell id="USRTUU9e9MGLYhp3lKSy-78" value="- firstName: String" style="text;strokeColor=none;fillColor=none;align=left;verticalAlign=top;spacingLeft=4;spacingRight=4;overflow=hidden;rotatable=1;points=[[0,0.5],[1,0.5]];portConstraint=eastwest;movable=1;resizable=1;deletable=1;editable=1;locked=0;connectable=1;" parent="USRTUU9e9MGLYhp3lKSy-69" vertex="1">
          <mxGeometry y="78" width="190.13" height="26" as="geometry" />
        </mxCell>
        <mxCell id="USRTUU9e9MGLYhp3lKSy-79" value="- lastName: String" style="text;strokeColor=none;fillColor=none;align=left;verticalAlign=top;spacingLeft=4;spacingRight=4;overflow=hidden;rotatable=1;points=[[0,0.5],[1,0.5]];portConstraint=eastwest;movable=1;resizable=1;deletable=1;editable=1;locked=0;connectable=1;" parent="USRTUU9e9MGLYhp3lKSy-69" vertex="1">
          <mxGeometry y="104" width="190.13" height="26" as="geometry" />
        </mxCell>
        <mxCell id="USRTUU9e9MGLYhp3lKSy-80" value="- address: String" style="text;strokeColor=none;fillColor=none;align=left;verticalAlign=top;spacingLeft=4;spacingRight=4;overflow=hidden;rotatable=1;points=[[0,0.5],[1,0.5]];portConstraint=eastwest;movable=1;resizable=1;deletable=1;editable=1;locked=0;connectable=1;" parent="USRTUU9e9MGLYhp3lKSy-69" vertex="1">
          <mxGeometry y="130" width="190.13" height="26" as="geometry" />
        </mxCell>
        <mxCell id="USRTUU9e9MGLYhp3lKSy-82" value="- phone: String" style="text;strokeColor=none;fillColor=none;align=left;verticalAlign=top;spacingLeft=4;spacingRight=4;overflow=hidden;rotatable=1;points=[[0,0.5],[1,0.5]];portConstraint=eastwest;movable=1;resizable=1;deletable=1;editable=1;locked=0;connectable=1;" parent="USRTUU9e9MGLYhp3lKSy-69" vertex="1">
          <mxGeometry y="156" width="190.13" height="26" as="geometry" />
        </mxCell>
        <mxCell id="USRTUU9e9MGLYhp3lKSy-71" value="" style="line;strokeWidth=1;fillColor=none;align=left;verticalAlign=middle;spacingTop=-1;spacingLeft=3;spacingRight=3;rotatable=1;labelPosition=right;points=[];portConstraint=eastwest;movable=1;resizable=1;deletable=1;editable=1;locked=0;connectable=1;" parent="USRTUU9e9MGLYhp3lKSy-69" vertex="1">
          <mxGeometry y="182" width="190.13" height="8" as="geometry" />
        </mxCell>
        <mxCell id="USRTUU9e9MGLYhp3lKSy-72" value="sumAdultAndChild(: Person): void" style="text;strokeColor=none;fillColor=none;align=left;verticalAlign=top;spacingLeft=4;spacingRight=4;overflow=hidden;rotatable=1;points=[[0,0.5],[1,0.5]];portConstraint=eastwest;movable=1;resizable=1;deletable=1;editable=1;locked=0;connectable=1;" parent="USRTUU9e9MGLYhp3lKSy-69" vertex="1">
          <mxGeometry y="190" width="190.13" height="26" as="geometry" />
        </mxCell>
        <mxCell id="USRTUU9e9MGLYhp3lKSy-112" value="FirestationPersonPhoneDTO" style="swimlane;fontStyle=1;childLayout=stackLayout;horizontal=1;startSize=26;fillColor=none;horizontalStack=0;resizeParent=1;resizeParentMax=0;resizeLast=0;collapsible=1;marginBottom=0;movable=1;resizable=1;rotatable=1;deletable=1;editable=1;locked=0;connectable=1;" parent="1" vertex="1">
          <mxGeometry x="-1370" y="-573.99" width="180" height="86" as="geometry" />
        </mxCell>
        <mxCell id="USRTUU9e9MGLYhp3lKSy-113" value="- phone: String" style="text;strokeColor=none;fillColor=none;align=left;verticalAlign=top;spacingLeft=4;spacingRight=4;overflow=hidden;rotatable=1;points=[[0,0.5],[1,0.5]];portConstraint=eastwest;movable=1;resizable=1;deletable=1;editable=1;locked=0;connectable=1;" parent="USRTUU9e9MGLYhp3lKSy-112" vertex="1">
          <mxGeometry y="26" width="180" height="26" as="geometry" />
        </mxCell>
        <mxCell id="USRTUU9e9MGLYhp3lKSy-114" value="" style="line;strokeWidth=1;fillColor=none;align=left;verticalAlign=middle;spacingTop=-1;spacingLeft=3;spacingRight=3;rotatable=1;labelPosition=right;points=[];portConstraint=eastwest;movable=1;resizable=1;deletable=1;editable=1;locked=0;connectable=1;" parent="USRTUU9e9MGLYhp3lKSy-112" vertex="1">
          <mxGeometry y="52" width="180" height="8" as="geometry" />
        </mxCell>
        <mxCell id="USRTUU9e9MGLYhp3lKSy-115" value="+ equals(): boolean" style="text;strokeColor=none;fillColor=none;align=left;verticalAlign=top;spacingLeft=4;spacingRight=4;overflow=hidden;rotatable=1;points=[[0,0.5],[1,0.5]];portConstraint=eastwest;movable=1;resizable=1;deletable=1;editable=1;locked=0;connectable=1;" parent="USRTUU9e9MGLYhp3lKSy-112" vertex="1">
          <mxGeometry y="60" width="180" height="26" as="geometry" />
        </mxCell>
        <mxCell id="USRTUU9e9MGLYhp3lKSy-116" value="FirestationsPersonDTO" style="swimlane;fontStyle=1;align=center;verticalAlign=top;childLayout=stackLayout;horizontal=1;startSize=26;horizontalStack=0;resizeParent=1;resizeParentMax=0;resizeLast=0;collapsible=1;marginBottom=0;fillColor=#dae8fc;strokeColor=#000000;movable=1;resizable=1;rotatable=1;deletable=1;editable=1;locked=0;connectable=1;" parent="1" vertex="1">
          <mxGeometry x="-1350.13" y="-480" width="160.13" height="182" as="geometry" />
        </mxCell>
        <mxCell id="USRTUU9e9MGLYhp3lKSy-121" value="- address: String" style="text;strokeColor=none;fillColor=none;align=left;verticalAlign=top;spacingLeft=4;spacingRight=4;overflow=hidden;rotatable=1;points=[[0,0.5],[1,0.5]];portConstraint=eastwest;movable=1;resizable=1;deletable=1;editable=1;locked=0;connectable=1;" parent="USRTUU9e9MGLYhp3lKSy-116" vertex="1">
          <mxGeometry y="26" width="160.13" height="26" as="geometry" />
        </mxCell>
        <mxCell id="USRTUU9e9MGLYhp3lKSy-120" value="- lastName: String" style="text;strokeColor=none;fillColor=none;align=left;verticalAlign=top;spacingLeft=4;spacingRight=4;overflow=hidden;rotatable=1;points=[[0,0.5],[1,0.5]];portConstraint=eastwest;movable=1;resizable=1;deletable=1;editable=1;locked=0;connectable=1;" parent="USRTUU9e9MGLYhp3lKSy-116" vertex="1">
          <mxGeometry y="52" width="160.13" height="26" as="geometry" />
        </mxCell>
        <mxCell id="USRTUU9e9MGLYhp3lKSy-122" value="- phone: String" style="text;strokeColor=none;fillColor=none;align=left;verticalAlign=top;spacingLeft=4;spacingRight=4;overflow=hidden;rotatable=1;points=[[0,0.5],[1,0.5]];portConstraint=eastwest;movable=1;resizable=1;deletable=1;editable=1;locked=0;connectable=1;" parent="USRTUU9e9MGLYhp3lKSy-116" vertex="1">
          <mxGeometry y="78" width="160.13" height="26" as="geometry" />
        </mxCell>
        <mxCell id="USRTUU9e9MGLYhp3lKSy-125" value="- age: String" style="text;strokeColor=none;fillColor=none;align=left;verticalAlign=top;spacingLeft=4;spacingRight=4;overflow=hidden;rotatable=1;points=[[0,0.5],[1,0.5]];portConstraint=eastwest;movable=1;resizable=1;deletable=1;editable=1;locked=0;connectable=1;" parent="USRTUU9e9MGLYhp3lKSy-116" vertex="1">
          <mxGeometry y="104" width="160.13" height="26" as="geometry" />
        </mxCell>
        <mxCell id="USRTUU9e9MGLYhp3lKSy-126" value="- medications: List&lt;String&gt;" style="text;strokeColor=none;fillColor=none;align=left;verticalAlign=top;spacingLeft=4;spacingRight=4;overflow=hidden;rotatable=1;points=[[0,0.5],[1,0.5]];portConstraint=eastwest;movable=1;resizable=1;deletable=1;editable=1;locked=0;connectable=1;" parent="USRTUU9e9MGLYhp3lKSy-116" vertex="1">
          <mxGeometry y="130" width="160.13" height="26" as="geometry" />
        </mxCell>
        <mxCell id="USRTUU9e9MGLYhp3lKSy-127" value="- allergies: List&lt;String&gt;" style="text;strokeColor=none;fillColor=none;align=left;verticalAlign=top;spacingLeft=4;spacingRight=4;overflow=hidden;rotatable=1;points=[[0,0.5],[1,0.5]];portConstraint=eastwest;movable=1;resizable=1;deletable=1;editable=1;locked=0;connectable=1;" parent="USRTUU9e9MGLYhp3lKSy-116" vertex="1">
          <mxGeometry y="156" width="160.13" height="26" as="geometry" />
        </mxCell>
        <mxCell id="USRTUU9e9MGLYhp3lKSy-128" value="PersonAddressNameDTO" style="swimlane;fontStyle=1;childLayout=stackLayout;horizontal=1;startSize=26;fillColor=none;horizontalStack=0;resizeParent=1;resizeParentMax=0;resizeLast=0;collapsible=1;marginBottom=0;strokeColor=#000000;movable=1;resizable=1;rotatable=1;deletable=1;editable=1;locked=0;connectable=1;" parent="1" vertex="1">
          <mxGeometry x="-1590" y="-420" width="230" height="156" as="geometry" />
        </mxCell>
        <mxCell id="USRTUU9e9MGLYhp3lKSy-132" value="- lastName: String" style="text;strokeColor=none;fillColor=none;align=left;verticalAlign=top;spacingLeft=4;spacingRight=4;overflow=hidden;rotatable=1;points=[[0,0.5],[1,0.5]];portConstraint=eastwest;movable=1;resizable=1;deletable=1;editable=1;locked=0;connectable=1;" parent="USRTUU9e9MGLYhp3lKSy-128" vertex="1">
          <mxGeometry y="26" width="230" height="26" as="geometry" />
        </mxCell>
        <mxCell id="USRTUU9e9MGLYhp3lKSy-133" value="- address: String" style="text;strokeColor=none;fillColor=none;align=left;verticalAlign=top;spacingLeft=4;spacingRight=4;overflow=hidden;rotatable=1;points=[[0,0.5],[1,0.5]];portConstraint=eastwest;movable=1;resizable=1;deletable=1;editable=1;locked=0;connectable=1;" parent="USRTUU9e9MGLYhp3lKSy-128" vertex="1">
          <mxGeometry y="52" width="230" height="26" as="geometry" />
        </mxCell>
        <mxCell id="USRTUU9e9MGLYhp3lKSy-134" value="- email: String" style="text;strokeColor=none;fillColor=none;align=left;verticalAlign=top;spacingLeft=4;spacingRight=4;overflow=hidden;rotatable=1;points=[[0,0.5],[1,0.5]];portConstraint=eastwest;movable=1;resizable=1;deletable=1;editable=1;locked=0;connectable=1;" parent="USRTUU9e9MGLYhp3lKSy-128" vertex="1">
          <mxGeometry y="78" width="230" height="26" as="geometry" />
        </mxCell>
        <mxCell id="USRTUU9e9MGLYhp3lKSy-135" value="- medications: List&lt;String&gt;" style="text;strokeColor=none;fillColor=none;align=left;verticalAlign=top;spacingLeft=4;spacingRight=4;overflow=hidden;rotatable=1;points=[[0,0.5],[1,0.5]];portConstraint=eastwest;movable=1;resizable=1;deletable=1;editable=1;locked=0;connectable=1;" parent="USRTUU9e9MGLYhp3lKSy-128" vertex="1">
          <mxGeometry y="104" width="230" height="26" as="geometry" />
        </mxCell>
        <mxCell id="USRTUU9e9MGLYhp3lKSy-136" value="- allergies: List&lt;String&gt;" style="text;strokeColor=none;fillColor=none;align=left;verticalAlign=top;spacingLeft=4;spacingRight=4;overflow=hidden;rotatable=1;points=[[0,0.5],[1,0.5]];portConstraint=eastwest;movable=1;resizable=1;deletable=1;editable=1;locked=0;connectable=1;" parent="USRTUU9e9MGLYhp3lKSy-128" vertex="1">
          <mxGeometry y="130" width="230" height="26" as="geometry" />
        </mxCell>
        <mxCell id="1NFbFlP9KMlzaAv_Gj2B-1" value="" style="endArrow=block;endSize=16;endFill=0;html=1;rounded=0;entryX=0.471;entryY=1.019;entryDx=0;entryDy=0;entryPerimeter=0;exitX=0.471;exitY=0.019;exitDx=0;exitDy=0;exitPerimeter=0;movable=1;resizable=1;rotatable=1;deletable=1;editable=1;locked=0;connectable=1;" parent="1" source="1NFbFlP9KMlzaAv_Gj2B-2" target="USRTUU9e9MGLYhp3lKSy-37" edge="1">
          <mxGeometry y="20" width="160" relative="1" as="geometry">
            <mxPoint x="-1700" y="-560" as="sourcePoint" />
            <mxPoint x="-1700" y="-590" as="targetPoint" />
            <mxPoint as="offset" />
            <Array as="points" />
          </mxGeometry>
        </mxCell>
        <mxCell id="1NFbFlP9KMlzaAv_Gj2B-2" value="AddressAdultChildDTO" style="swimlane;fontStyle=1;childLayout=stackLayout;horizontal=1;startSize=26;fillColor=none;horizontalStack=0;resizeParent=1;resizeParentMax=0;resizeLast=0;collapsible=1;marginBottom=0;movable=1;resizable=1;rotatable=1;deletable=1;editable=1;locked=0;connectable=1;" parent="1" vertex="1">
          <mxGeometry x="-1788" y="-564" width="183" height="52" as="geometry" />
        </mxCell>
        <mxCell id="1NFbFlP9KMlzaAv_Gj2B-5" value="- adults: List&lt;AddressAdultChildDTO&gt;" style="text;strokeColor=none;fillColor=none;align=left;verticalAlign=top;spacingLeft=4;spacingRight=4;overflow=hidden;rotatable=1;points=[[0,0.5],[1,0.5]];portConstraint=eastwest;movable=1;resizable=1;deletable=1;editable=1;locked=0;connectable=1;" parent="1NFbFlP9KMlzaAv_Gj2B-2" vertex="1">
          <mxGeometry y="26" width="183" height="26" as="geometry" />
        </mxCell>
        <mxCell id="I-odZtCI1YUN6Ku1rCpY-2" value="@PostConstruct" style="shape=note2;boundedLbl=1;whiteSpace=wrap;html=1;size=25;verticalAlign=top;align=center;fontSize=12;movable=1;resizable=1;rotatable=1;deletable=1;editable=1;locked=0;connectable=1;" parent="1" vertex="1">
          <mxGeometry x="119.99999999999999" y="-935" width="130.27" height="64" as="geometry" />
        </mxCell>
        <mxCell id="I-odZtCI1YUN6Ku1rCpY-3" value="" style="endArrow=none;html=1;rounded=0;align=center;verticalAlign=top;endFill=0;labelBackgroundColor=none;fontSize=12;entryX=0;entryY=0.5;entryDx=0;entryDy=0;entryPerimeter=0;exitX=0.243;exitY=0.577;exitDx=0;exitDy=0;exitPerimeter=0;movable=1;resizable=1;rotatable=1;deletable=1;editable=1;locked=0;connectable=1;" parent="1" source="I-odZtCI1YUN6Ku1rCpY-1" target="I-odZtCI1YUN6Ku1rCpY-2" edge="1">
          <mxGeometry relative="1" as="geometry">
            <mxPoint x="-119.99900000000027" y="-962.002" as="sourcePoint" />
            <mxPoint x="-70.27" y="-748.62" as="targetPoint" />
          </mxGeometry>
        </mxCell>
      </root>
    </mxGraphModel>
  </diagram>
</mxfile>
